<?xml version="1.0" encoding="utf-8"?>
<!-- Generator: Adobe Illustrator 16.0.0, SVG Export Plug-In . SVG Version: 6.00 Build 0)  -->
<!DOCTYPE svg PUBLIC "-//W3C//DTD SVG 1.1//EN" "http://www.w3.org/Graphics/SVG/1.1/DTD/svg11.dtd">
<svg version="1.1" id="Layer_1" xmlns="http://www.w3.org/2000/svg" xmlns:xlink="http://www.w3.org/1999/xlink" x="0px" y="0px"
	 width="668px" height="142px" viewBox="0 0 668 142" enable-background="new 0 0 668 142" xml:space="preserve">
<g id="back">
	<line fill="none" stroke="#FFFFFF" stroke-miterlimit="10" x1="217" y1="121" x2="33" y2="121"/>
	<line fill="none" stroke="#FFFFFF" stroke-miterlimit="10" x1="632" y1="121" x2="448" y2="121"/>
</g>
<g id="logo_Drk">
	<g>
		<path fill="#D6D6D6" d="M237.181,117.451c0,1.844-0.576,3.254-1.729,4.23c-1.153,0.976-2.791,1.465-4.916,1.465h-1.559v6.094
			h-3.633v-17.133h5.473c2.078,0,3.658,0.447,4.74,1.342S237.181,115.678,237.181,117.451z M228.978,120.17h1.195
			c1.117,0,1.953-0.221,2.508-0.662c0.555-0.441,0.832-1.084,0.832-1.928c0-0.852-0.232-1.48-0.697-1.887
			c-0.465-0.407-1.193-0.609-2.186-0.609h-1.652V120.17z"/>
		<path fill="#D6D6D6" d="M257.166,120.65c0,2.836-0.703,5.016-2.109,6.539c-1.406,1.522-3.422,2.285-6.047,2.285
			s-4.641-0.763-6.047-2.285c-1.406-1.523-2.109-3.711-2.109-6.562s0.705-5.029,2.115-6.533c1.41-1.504,3.432-2.256,6.064-2.256
			c2.632,0,4.646,0.758,6.041,2.273C256.469,115.626,257.166,117.807,257.166,120.65z M244.662,120.65
			c0,1.914,0.363,3.354,1.09,4.324c0.727,0.969,1.812,1.452,3.258,1.452c2.898,0,4.348-1.926,4.348-5.776
			c0-3.859-1.441-5.789-4.324-5.789c-1.445,0-2.535,0.486-3.27,1.459C245.029,117.293,244.662,118.736,244.662,120.65z"/>
		<path fill="#D6D6D6" d="M265.55,122.666v6.574h-3.633v-17.133h4.992c2.328,0,4.051,0.424,5.168,1.271
			c1.117,0.847,1.676,2.136,1.676,3.861c0,1.008-0.277,1.903-0.832,2.688c-0.555,0.785-1.34,1.4-2.355,1.846
			c2.578,3.853,4.258,6.341,5.039,7.466h-4.031l-4.09-6.574L265.55,122.666L265.55,122.666z M265.55,119.713h1.172
			c1.148,0,1.996-0.191,2.543-0.574c0.547-0.383,0.82-0.983,0.82-1.805c0-0.812-0.279-1.391-0.838-1.734
			c-0.559-0.343-1.424-0.516-2.596-0.516h-1.102L265.55,119.713L265.55,119.713z"/>
		<path fill="#D6D6D6" d="M285.569,129.24h-3.633v-14.109h-4.652v-3.023h12.938v3.023h-4.652L285.569,129.24L285.569,129.24z"/>
		<path fill="#D6D6D6" d="M304.547,129.24l-1.242-4.078h-6.246l-1.242,4.078h-3.914l6.047-17.203h4.44l6.07,17.203H304.547z
			 M302.438,122.115c-1.147-3.695-1.795-5.785-1.938-6.271s-0.248-0.866-0.312-1.147c-0.258,1-0.995,3.473-2.215,7.418H302.438z"/>
		<path fill="#D6D6D6" d="M315.45,122.666v6.574h-3.633v-17.133h4.991c2.328,0,4.052,0.424,5.168,1.271
			c1.117,0.847,1.677,2.136,1.677,3.861c0,1.008-0.277,1.903-0.832,2.688c-0.556,0.785-1.34,1.4-2.355,1.846
			c2.578,3.853,4.258,6.341,5.039,7.466h-4.031l-4.09-6.574L315.45,122.666L315.45,122.666z M315.45,119.713h1.172
			c1.147,0,1.996-0.191,2.543-0.574s0.82-0.983,0.82-1.805c0-0.812-0.279-1.391-0.838-1.734c-0.56-0.343-1.425-0.516-2.597-0.516
			h-1.102L315.45,119.713L315.45,119.713z"/>
		<path fill="#D6D6D6" d="M328.861,129.24v-17.133h3.633v14.133h6.949v3H328.861z"/>
		<path fill="#D6D6D6" d="M343.62,129.24v-17.133h3.633v17.133H343.62z"/>
		<path fill="#D6D6D6" d="M367.964,129.24h-4.617l-7.453-12.961h-0.104c0.147,2.289,0.223,3.922,0.223,4.897v8.062h-3.246v-17.134
			h4.582l7.441,12.832h0.082c-0.117-2.227-0.176-3.801-0.176-4.723v-8.109h3.27L367.964,129.24L367.964,129.24z"/>
		<path fill="#D6D6D6" d="M379.98,119.619h6.797v8.883c-1.103,0.359-2.14,0.611-3.111,0.756s-1.967,0.217-2.982,0.217
			c-2.586,0-4.561-0.76-5.924-2.279c-1.362-1.519-2.045-3.7-2.045-6.545c0-2.766,0.791-4.922,2.373-6.469s3.775-2.32,6.58-2.32
			c1.758,0,3.453,0.353,5.086,1.056l-1.207,2.906c-1.25-0.625-2.551-0.938-3.902-0.938c-1.569,0-2.827,0.527-3.772,1.582
			s-1.418,2.473-1.418,4.254c0,1.859,0.381,3.279,1.143,4.26c0.763,0.981,1.869,1.472,3.322,1.472c0.758,0,1.527-0.078,2.309-0.234
			v-3.573h-3.245v-3.025H379.98z"/>
		<path fill="#D6D6D6" d="M398.665,129.24h-3.633v-14.109h-4.652v-3.023h12.938v3.023h-4.652L398.665,129.24L398.665,129.24z"/>
		<path fill="#D6D6D6" d="M422.705,120.65c0,2.836-0.703,5.016-2.109,6.539c-1.405,1.522-3.422,2.285-6.047,2.285
			s-4.641-0.763-6.047-2.285c-1.406-1.523-2.109-3.711-2.109-6.562s0.705-5.029,2.115-6.533s3.433-2.256,6.064-2.256
			s4.646,0.758,6.041,2.273C422.008,115.626,422.705,117.807,422.705,120.65z M410.201,120.65c0,1.914,0.363,3.354,1.09,4.324
			c0.727,0.969,1.812,1.452,3.258,1.452c2.898,0,4.348-1.926,4.348-5.776c0-3.859-1.44-5.789-4.323-5.789
			c-1.445,0-2.535,0.486-3.271,1.459C410.568,117.293,410.201,118.736,410.201,120.65z"/>
		<path fill="#D6D6D6" d="M442.655,129.24h-4.617l-7.453-12.961h-0.104c0.147,2.289,0.223,3.922,0.223,4.897v8.062h-3.246v-17.134
			h4.582l7.441,12.832h0.081c-0.116-2.227-0.176-3.801-0.176-4.723v-8.109h3.271L442.655,129.24L442.655,129.24z"/>
	</g>
</g>
<g id="Logo_Lght">
	<g>
		<g>
			<path fill="#FFFFFF" stroke="#FFFFFF" stroke-width="2" stroke-miterlimit="10" d="M73.118,43.646v8.127
				c0,10.002-6.479,15.451-19.679,15.451h-6.24v23.488H34V28.195h19.439C66.639,28.195,73.118,33.645,73.118,43.646z M47.199,37.127
				v21.166h6.24c4.199,0,6.479-1.43,6.479-5.895v-9.377c0-4.465-2.28-5.895-6.479-5.895L47.199,37.127L47.199,37.127z"/>
			<path fill="#FFFFFF" stroke="#FFFFFF" stroke-width="2" stroke-miterlimit="10" d="M84.759,43.199
				c0-10.002,7.08-15.719,20.039-15.719c12.96,0,20.04,5.717,20.04,15.719v32.51c0,10.004-7.08,15.721-20.04,15.721
				c-12.959,0-20.039-5.717-20.039-15.721V43.199z M97.959,76.334c0,4.467,2.639,6.164,6.839,6.164c4.2,0,6.84-1.697,6.84-6.164
				v-33.76c0-4.465-2.64-6.162-6.84-6.162c-4.2,0-6.839,1.697-6.839,6.162V76.334z"/>
			<path fill="#FFFFFF" stroke="#FFFFFF" stroke-width="2" stroke-miterlimit="10" d="M168.637,57.4l-4.799,33.312h-18.119
				l-9.36-62.518h12.84l7.079,49.301l6.36-49.301h12.72l6.6,49.658l6.84-49.658h11.52l-9.36,62.518h-17.519L168.637,57.4z"/>
			<path fill="#FFFFFF" stroke="#FFFFFF" stroke-width="2" stroke-miterlimit="10" d="M226.116,54.543h18.12v8.932h-18.12v18.309
				h22.799v8.93h-35.998V28.195h35.998v8.932h-22.799V54.543z"/>
			<path fill="#FFFFFF" stroke="#FFFFFF" stroke-width="2" stroke-miterlimit="10" d="M290.676,90.713
				c-0.721-1.607-1.199-2.588-1.199-7.68v-9.824c0-5.805-2.641-7.949-8.642-7.949h-4.56v25.453h-13.199V28.195h19.92
				c13.68,0,19.559,4.734,19.559,14.379v4.912c0,6.432-2.76,10.629-8.639,12.684c6.6,2.055,8.76,6.787,8.76,13.307v9.646
				c0,3.037,0.119,5.27,1.439,7.59H290.676z M276.275,37.127V56.33h5.16c4.92,0,7.92-1.609,7.92-6.611v-6.16
				c0-4.467-2.039-6.432-6.719-6.432H276.275z"/>
			<path display="none" fill="#FFFFFF" stroke="#FFFFFF" stroke-width="2" stroke-miterlimit="10" d="M353.99,90.713h-13.199V28.195
				h13.199v26.793h15V28.195h13.438v62.518H368.99V63.92h-15V90.713z"/>
			<path fill="#FFFFFF" stroke="#FFFFFF" stroke-width="2" stroke-miterlimit="10" d="M437.115,43.199
				c0-10.002,7.08-15.719,20.039-15.719s20.039,5.717,20.039,15.719v32.51c0,10.004-7.08,15.721-20.039,15.721
				s-20.039-5.717-20.039-15.721V43.199z M450.314,76.334c0,4.467,2.641,6.164,6.84,6.164c4.198,0,6.84-1.697,6.84-6.164v-33.76
				c0-4.465-2.642-6.162-6.84-6.162c-4.199,0-6.84,1.697-6.84,6.162V76.334z"/>
			<path fill="#FFFFFF" stroke="#FFFFFF" stroke-width="2" stroke-miterlimit="10" d="M504.314,28.195v48.229
				c0,4.467,2.639,6.074,6.84,6.074c4.198,0,6.84-1.607,6.84-6.074V28.195h12.479v47.604c0,10.004-6.719,15.719-19.68,15.719
				c-12.959,0-19.678-5.715-19.678-15.719V28.195H504.314z"/>
			<path fill="#FFFFFF" stroke="#FFFFFF" stroke-width="2" stroke-miterlimit="10" d="M563.234,27.48
				c12.838,0,19.438,5.717,19.438,15.719v1.967h-12.479v-2.592c0-4.465-2.4-6.162-6.601-6.162s-6.6,1.697-6.6,6.162
				c0,12.861,25.799,15.273,25.799,33.135c0,10.004-6.721,15.721-19.68,15.721s-19.681-5.717-19.681-15.721v-3.84h12.48v4.465
				c0,4.467,2.639,6.074,6.84,6.074c4.199,0,6.84-1.607,6.84-6.074c0-12.859-25.799-15.271-25.799-33.135
				C543.795,33.197,550.395,27.48,563.234,27.48z"/>
			<path fill="#FFFFFF" stroke="#FFFFFF" stroke-width="2" stroke-miterlimit="10" d="M609.553,54.543h18.117v8.932h-18.117v18.309
				h22.797v8.93h-35.996V28.195h35.996v8.932h-22.797V54.543z"/>
		</g>
		<g>
			<rect x="352.115" y="53" fill="#007ACD" width="43" height="14"/>
			<g>
				<rect x="387.115" y="27" fill="#007ACD" width="18" height="65"/>
				<rect x="406" y="35.191" fill="#007ACD" width="15" height="48.618"/>
				<rect x="421" y="53" fill="#007ACD" width="9" height="14"/>
				<rect x="404" y="27" fill="#07659C" width="4" height="65"/>
				<rect x="419" y="35" fill="#07659C" width="4" height="49"/>
				<rect x="383" y="53" fill="#07659C" width="4" height="14"/>
			</g>
			<g>
				<rect x="335.885" y="27" fill="#007ACD" width="18" height="65"/>
				<rect x="320" y="35.191" fill="#007ACD" width="15" height="48.618"/>
				<rect x="311" y="53" fill="#007ACD" width="9" height="14"/>
				<rect x="333" y="27" fill="#07659C" width="4" height="65"/>
				<rect x="318" y="35" fill="#07659C" width="4" height="49"/>
				<rect x="354" y="53" fill="#07659C" width="4" height="14"/>
			</g>
		</g>
	</g>
</g>
</svg>
