<?xml version="1.0" encoding="utf-8"?>
<!-- Generator: Adobe Illustrator 16.0.0, SVG Export Plug-In . SVG Version: 6.00 Build 0)  -->
<!DOCTYPE svg PUBLIC "-//W3C//DTD SVG 1.1//EN" "http://www.w3.org/Graphics/SVG/1.1/DTD/svg11.dtd">
<svg version="1.1" id="Layer_1" xmlns="http://www.w3.org/2000/svg" xmlns:xlink="http://www.w3.org/1999/xlink" x="0px" y="0px"
	 width="386.047px" height="62.791px" viewBox="0 0 386.047 62.791" enable-background="new 0 0 386.047 62.791"
	 xml:space="preserve">
<g>
	<g>
		<path fill="#F6F7F7" d="M32.695,21.169v5.025c0,6.186-4.007,9.555-12.169,9.555h-3.859v14.525H8.505v-38.66h12.021
			C28.688,11.615,32.695,14.984,32.695,21.169z M16.667,17.138v13.089h3.859c2.597,0,4.007-0.885,4.007-3.646v-5.799
			c0-2.761-1.41-3.645-4.007-3.645H16.667z"/>
		<path fill="#F6F7F7" d="M39.894,20.893c0-6.185,4.378-9.721,12.392-9.721c8.014,0,12.392,3.536,12.392,9.721v20.104
			c0,6.186-4.378,9.721-12.392,9.721c-8.014,0-12.392-3.535-12.392-9.721V20.893z M48.056,41.383c0,2.762,1.632,3.812,4.229,3.812
			s4.229-1.05,4.229-3.812V20.506c0-2.761-1.632-3.811-4.229-3.811s-4.229,1.05-4.229,3.811V41.383z"/>
		<path fill="#F6F7F7" d="M91.763,29.674l-2.968,20.6H77.59l-5.788-38.66h7.94l4.378,30.487l3.933-30.487h7.865L100,42.323
			l4.23-30.708h7.124l-5.788,38.66H94.731L91.763,29.674z"/>
		<path fill="#F6F7F7" d="M127.308,27.908h11.205v5.523h-11.205v11.321h14.099v5.522h-22.261v-38.66h22.261v5.523h-14.099V27.908z"
			/>
		<path fill="#F6F7F7" d="M167.23,50.274c-0.445-0.994-0.741-1.6-0.741-4.749v-6.075c0-3.59-1.633-4.916-5.344-4.916h-2.82v15.74
			h-8.162v-38.66h12.318c8.459,0,12.095,2.928,12.095,8.892v3.038c0,3.977-1.707,6.572-5.342,7.843
			c4.081,1.271,5.417,4.197,5.417,8.229v5.966c0,1.878,0.074,3.259,0.89,4.693H167.23z M158.325,17.138v11.875h3.191
			c3.042,0,4.897-0.995,4.897-4.089v-3.81c0-2.762-1.261-3.977-4.155-3.977H158.325z"/>
		<path display="none" fill="#F6F7F7" d="M206.383,50.274h-8.162v-38.66h8.162v16.568h9.276V11.615h8.312v38.66h-8.312V33.707
			h-9.276V50.274z"/>
		<path fill="#F6F7F7" d="M257.787,20.893c0-6.185,4.379-9.721,12.393-9.721s12.391,3.536,12.391,9.721v20.104
			c0,6.186-4.377,9.721-12.391,9.721s-12.393-3.535-12.393-9.721V20.893z M265.949,41.383c0,2.762,1.633,3.812,4.23,3.812
			c2.596,0,4.229-1.05,4.229-3.812V20.506c0-2.761-1.633-3.811-4.229-3.811c-2.598,0-4.23,1.05-4.23,3.811V41.383z"/>
		<path fill="#F6F7F7" d="M299.342,11.615v29.824c0,2.762,1.633,3.756,4.23,3.756c2.597,0,4.229-0.994,4.229-3.756V11.615h7.717
			v29.438c0,6.187-4.155,9.72-12.17,9.72c-8.014,0-12.169-3.533-12.169-9.72V11.615H299.342z"/>
		<path fill="#F6F7F7" d="M335.778,11.172c7.938,0,12.02,3.536,12.02,9.721v1.216h-7.717v-1.603c0-2.761-1.484-3.811-4.081-3.811
			s-4.081,1.05-4.081,3.811c0,7.953,15.954,9.445,15.954,20.49c0,6.186-4.156,9.721-12.17,9.721s-12.17-3.535-12.17-9.721v-2.374
			h7.718v2.761c0,2.762,1.632,3.756,4.229,3.756c2.597,0,4.229-0.994,4.229-3.756c0-7.952-15.953-9.444-15.953-20.49
			C323.757,14.708,327.838,11.172,335.778,11.172z"/>
		<path fill="#F6F7F7" d="M364.421,27.908h11.203v5.523h-11.203v11.321h14.097v5.522h-22.259v-38.66h22.259v5.523h-14.097V27.908z"
			/>
	</g>
	<g>
		<rect x="205.225" y="26.954" fill="#247ABE" width="26.59" height="8.657"/>
		<g>
			<rect x="226.867" y="10.875" fill="#2279BD" width="11.131" height="40.196"/>
			<rect x="238.546" y="15.941" fill="#2279BD" width="9.276" height="30.064"/>
			<rect x="246.822" y="26.954" fill="#2279BD" width="5.564" height="8.657"/>
			<rect x="237.309" y="10.875" fill="#03649B" width="2.475" height="40.196"/>
			<rect x="245.585" y="15.941" fill="#03649B" width="2.474" height="30.064"/>
			<rect x="224.322" y="26.954" fill="#03649B" width="2.475" height="8.657"/>
		</g>
		<g>
			<rect x="195.188" y="10.875" fill="#2279BD" width="11.131" height="40.196"/>
			<rect x="185.364" y="15.941" fill="#2279BD" width="9.277" height="30.064"/>
			<rect x="179.798" y="26.954" fill="#2279BD" width="5.565" height="8.657"/>
			<rect x="193.403" y="10.875" fill="#03649B" width="2.474" height="40.196"/>
			<rect x="185.364" y="15.941" fill="#03649B" width="2.474" height="30.064"/>
			<rect x="206.39" y="26.954" fill="#03649B" width="2.474" height="8.657"/>
		</g>
	</g>
</g>
</svg>
