<?xml version="1.0" encoding="utf-8"?>
<!-- Generator: Adobe Illustrator 16.0.0, SVG Export Plug-In . SVG Version: 6.00 Build 0)  -->
<!DOCTYPE svg PUBLIC "-//W3C//DTD SVG 1.1//EN" "http://www.w3.org/Graphics/SVG/1.1/DTD/svg11.dtd">
<svg version="1.1" xmlns="http://www.w3.org/2000/svg" xmlns:xlink="http://www.w3.org/1999/xlink" x="0px" y="0px" width="668px"
	 height="142px" viewBox="0 0 668 142" enable-background="new 0 0 668 142" xml:space="preserve">
<g id="back">
	<g>
		<defs>
			<rect id="SVGID_1_" x="-897" y="399" width="796" height="572"/>
		</defs>
		<clipPath id="SVGID_2_">
			<use xlink:href="#SVGID_1_"  overflow="visible"/>
		</clipPath>
		<g clip-path="url(#SVGID_2_)">
			
				<image overflow="visible" width="3000" height="2000" xlink:href="64CC094E8A2B52A6.jpg"  transform="matrix(0.2865 0 0 0.2865 -930 399)">
			</image>
		</g>
	</g>
	<rect x="-897" y="63" fill="#282828" width="798" height="336"/>
	<g>
		<path fill="#757576" d="M-563.897,80.506c-1.168,1.568-2.017,3.648-2.017,6.546c0,2.849,0.88,4.897,2.017,6.499h-1.104
			c-1.008-1.328-2.097-3.377-2.097-6.499c0.016-3.153,1.089-5.202,2.097-6.546H-563.897z"/>
		<path fill="#757576" d="M-558.971,80.969c0.848-0.127,1.856-0.223,2.961-0.223c2.001,0,3.426,0.463,4.37,1.344
			c0.96,0.881,1.521,2.129,1.521,3.873c0,1.762-0.545,3.201-1.553,4.194c-1.009,1.009-2.673,1.553-4.771,1.553
			c-0.992,0-1.824-0.048-2.528-0.128V80.969z M-557.578,90.51c0.352,0.063,0.864,0.08,1.408,0.08c2.978,0,4.594-1.665,4.594-4.578
			c0.017-2.545-1.425-4.162-4.369-4.162c-0.721,0-1.265,0.064-1.633,0.145V90.51z"/>
		<path fill="#757576" d="M-544.073,91.613l-0.112-0.977h-0.048c-0.432,0.609-1.265,1.153-2.369,1.153
			c-1.568,0-2.368-1.104-2.368-2.226c0-1.872,1.664-2.896,4.657-2.881v-0.16c0-0.641-0.176-1.793-1.761-1.793
			c-0.72,0-1.473,0.225-2.017,0.576l-0.32-0.928c0.641-0.416,1.569-0.688,2.545-0.688c2.369,0,2.945,1.616,2.945,3.169v2.897
			c0,0.673,0.032,1.329,0.128,1.856H-544.073z M-544.281,87.66c-1.536-0.032-3.281,0.24-3.281,1.744
			c0,0.913,0.608,1.346,1.328,1.346c1.009,0,1.649-0.641,1.873-1.297c0.048-0.145,0.08-0.305,0.08-0.448V87.66z"/>
		<path fill="#757576" d="M-540.65,86.283c0-0.912-0.017-1.696-0.064-2.416h1.232l0.048,1.52h0.064
			c0.352-1.04,1.2-1.696,2.145-1.696c0.16,0,0.272,0.017,0.4,0.048v1.328c-0.145-0.031-0.288-0.047-0.48-0.047
			c-0.992,0-1.696,0.752-1.889,1.809c-0.032,0.191-0.063,0.416-0.063,0.656v4.129h-1.393V86.283z"/>
		<path fill="#757576" d="M-533.963,87.42h0.032c0.192-0.271,0.465-0.607,0.688-0.881l2.273-2.672h1.696l-2.993,3.185l3.409,4.562
			h-1.713l-2.673-3.713l-0.721,0.801v2.912h-1.392V80.249h1.392V87.42z"/>
		<path fill="#757576" d="M-524.412,80.969c0.608-0.127,1.568-0.223,2.545-0.223c1.393,0,2.289,0.239,2.961,0.783
			c0.561,0.416,0.896,1.057,0.896,1.905c0,1.04-0.688,1.952-1.825,2.368v0.033c1.024,0.256,2.226,1.104,2.226,2.705
			c0,0.928-0.368,1.633-0.913,2.16c-0.752,0.688-1.969,1.009-3.729,1.009c-0.96,0-1.696-0.063-2.16-0.128V80.969z M-523.02,85.387
			h1.265c1.472,0,2.337-0.768,2.337-1.809c0-1.264-0.961-1.76-2.369-1.76c-0.641,0-1.009,0.047-1.232,0.096V85.387z M-523.02,90.557
			c0.271,0.049,0.672,0.064,1.168,0.064c1.44,0,2.77-0.527,2.77-2.097c0-1.473-1.265-2.081-2.785-2.081h-1.152V90.557z"/>
		<path fill="#757576" d="M-511.499,91.613l-0.112-0.977h-0.048c-0.432,0.609-1.265,1.153-2.369,1.153
			c-1.568,0-2.368-1.104-2.368-2.226c0-1.872,1.664-2.896,4.657-2.881v-0.16c0-0.641-0.176-1.793-1.761-1.793
			c-0.72,0-1.473,0.225-2.017,0.576l-0.32-0.928c0.641-0.416,1.569-0.688,2.545-0.688c2.369,0,2.945,1.616,2.945,3.169v2.897
			c0,0.673,0.032,1.329,0.128,1.856H-511.499z M-511.707,87.66c-1.536-0.032-3.281,0.24-3.281,1.744
			c0,0.913,0.608,1.346,1.328,1.346c1.009,0,1.649-0.641,1.873-1.297c0.048-0.145,0.08-0.305,0.08-0.448V87.66z"/>
		<path fill="#757576" d="M-502.554,91.326c-0.368,0.191-1.185,0.447-2.225,0.447c-2.337,0-3.857-1.584-3.857-3.953
			c0-2.385,1.633-4.113,4.161-4.113c0.833,0,1.569,0.207,1.953,0.4l-0.32,1.088c-0.336-0.192-0.864-0.368-1.633-0.368
			c-1.776,0-2.736,1.312-2.736,2.929c0,1.793,1.152,2.897,2.688,2.897c0.801,0,1.329-0.208,1.729-0.384L-502.554,91.326z"/>
		<path fill="#757576" d="M-499.516,87.42h0.032c0.192-0.271,0.465-0.607,0.688-0.881l2.273-2.672h1.696l-2.993,3.185l3.409,4.562
			h-1.713l-2.673-3.713l-0.721,0.801v2.912h-1.392V80.249h1.392V87.42z"/>
		<path fill="#757576" d="M-486.729,83.867c-0.031,0.56-0.063,1.184-0.063,2.129v4.497c0,1.776-0.353,2.865-1.104,3.538
			c-0.752,0.703-1.841,0.928-2.817,0.928c-0.929,0-1.953-0.225-2.577-0.641l0.353-1.072c0.512,0.32,1.312,0.608,2.272,0.608
			c1.44,0,2.497-0.752,2.497-2.705v-0.864h-0.032c-0.432,0.721-1.264,1.297-2.465,1.297c-1.921,0-3.297-1.633-3.297-3.777
			c0-2.625,1.713-4.114,3.489-4.114c1.345,0,2.081,0.704,2.417,1.345h0.032l0.063-1.168H-486.729z M-488.186,86.924
			c0-0.24-0.017-0.448-0.08-0.641c-0.256-0.816-0.944-1.488-1.969-1.488c-1.345,0-2.305,1.137-2.305,2.93
			c0,1.52,0.768,2.785,2.288,2.785c0.865,0,1.649-0.545,1.953-1.441c0.08-0.24,0.112-0.512,0.112-0.752V86.924z"/>
		<path fill="#757576" d="M-484.557,86.283c0-0.912-0.017-1.696-0.064-2.416h1.232l0.048,1.52h0.064
			c0.352-1.04,1.2-1.696,2.145-1.696c0.16,0,0.272,0.017,0.4,0.048v1.328c-0.145-0.031-0.288-0.047-0.48-0.047
			c-0.992,0-1.696,0.752-1.889,1.809c-0.032,0.191-0.063,0.416-0.063,0.656v4.129h-1.393V86.283z"/>
		<path fill="#757576" d="M-472.473,87.676c0,2.865-1.985,4.114-3.858,4.114c-2.097,0-3.713-1.536-3.713-3.985
			c0-2.594,1.696-4.114,3.842-4.114C-473.978,83.69-472.473,85.307-472.473,87.676z M-478.619,87.756
			c0,1.697,0.976,2.978,2.353,2.978c1.345,0,2.353-1.265,2.353-3.009c0-1.312-0.656-2.978-2.32-2.978
			C-477.899,84.747-478.619,86.283-478.619,87.756z"/>
		<path fill="#757576" d="M-464.218,89.501c0,0.8,0.016,1.505,0.063,2.112h-1.248l-0.08-1.264h-0.032
			c-0.368,0.624-1.185,1.44-2.561,1.44c-1.217,0-2.674-0.673-2.674-3.394v-4.529h1.409v4.289c0,1.473,0.448,2.465,1.729,2.465
			c0.944,0,1.601-0.656,1.856-1.28c0.08-0.208,0.128-0.464,0.128-0.72v-4.754h1.409V89.501z"/>
		<path fill="#757576" d="M-461.884,85.963c0-0.8-0.017-1.456-0.064-2.096h1.248l0.08,1.279h0.032
			c0.385-0.736,1.28-1.456,2.562-1.456c1.072,0,2.736,0.641,2.736,3.298v4.625h-1.408v-4.465c0-1.249-0.464-2.289-1.793-2.289
			c-0.928,0-1.648,0.656-1.889,1.44c-0.063,0.176-0.096,0.416-0.096,0.656v4.657h-1.408V85.963z"/>
		<path fill="#757576" d="M-446.314,80.249v9.364c0,0.688,0.016,1.473,0.063,2h-1.265l-0.063-1.344h-0.032
			c-0.432,0.864-1.376,1.521-2.641,1.521c-1.873,0-3.313-1.585-3.313-3.938c-0.017-2.576,1.585-4.161,3.474-4.161
			c1.185,0,1.984,0.561,2.337,1.185h0.031v-4.626H-446.314z M-447.724,87.02c0-0.176-0.016-0.416-0.063-0.592
			c-0.208-0.896-0.977-1.633-2.033-1.633c-1.456,0-2.32,1.281-2.32,2.993c0,1.569,0.768,2.865,2.288,2.865
			c0.945,0,1.81-0.624,2.065-1.681c0.048-0.191,0.063-0.385,0.063-0.608V87.02z"/>
		<path fill="#757576" d="M-444.172,90.174c0.416,0.271,1.152,0.56,1.856,0.56c1.024,0,1.505-0.513,1.505-1.152
			c0-0.673-0.4-1.04-1.44-1.425c-1.393-0.496-2.049-1.264-2.049-2.193c0-1.248,1.008-2.272,2.673-2.272
			c0.784,0,1.473,0.224,1.904,0.48l-0.352,1.024c-0.305-0.192-0.864-0.448-1.585-0.448c-0.832,0-1.296,0.479-1.296,1.056
			c0,0.641,0.464,0.93,1.472,1.312c1.345,0.513,2.033,1.186,2.033,2.338c0,1.36-1.057,2.32-2.897,2.32
			c-0.848,0-1.632-0.207-2.177-0.527L-444.172,90.174z"/>
		<path fill="#757576" d="M-435.102,93.551c1.137-1.585,2.017-3.666,2.017-6.547c0-2.865-0.864-4.914-2.017-6.498h1.088
			c1.024,1.312,2.098,3.361,2.098,6.514c0,3.138-1.073,5.17-2.098,6.531H-435.102z"/>
	</g>
	<g>
		<path fill="#FFFFFF" d="M-553.762,418.252c-1.168,1.568-2.017,3.648-2.017,6.546c0,2.849,0.88,4.897,2.017,6.499h-1.104
			c-1.008-1.328-2.097-3.377-2.097-6.499c0.016-3.153,1.089-5.202,2.097-6.546H-553.762z"/>
		<path fill="#FFFFFF" d="M-548.835,418.571h1.393v9.62h4.609v1.168h-6.002V418.571z"/>
		<path fill="#FFFFFF" d="M-534.544,425.422c0,2.865-1.985,4.114-3.858,4.114c-2.097,0-3.713-1.536-3.713-3.985
			c0-2.594,1.696-4.114,3.842-4.114C-536.049,421.437-534.544,423.053-534.544,425.422z M-540.69,425.502
			c0,1.697,0.976,2.978,2.353,2.978c1.345,0,2.353-1.265,2.353-3.009c0-1.312-0.656-2.978-2.32-2.978
			C-539.971,422.493-540.69,424.029-540.69,425.502z"/>
		<path fill="#FFFFFF" d="M-526.097,421.613c-0.031,0.56-0.063,1.184-0.063,2.129v4.497c0,1.776-0.353,2.865-1.104,3.538
			c-0.752,0.703-1.841,0.928-2.817,0.928c-0.929,0-1.953-0.225-2.577-0.641l0.353-1.072c0.512,0.32,1.312,0.608,2.272,0.608
			c1.44,0,2.497-0.752,2.497-2.705v-0.864h-0.032c-0.432,0.721-1.264,1.297-2.465,1.297c-1.921,0-3.297-1.633-3.297-3.777
			c0-2.625,1.713-4.114,3.489-4.114c1.345,0,2.081,0.704,2.417,1.345h0.032l0.063-1.168H-526.097z M-527.553,424.67
			c0-0.24-0.017-0.448-0.08-0.641c-0.256-0.816-0.944-1.488-1.969-1.488c-1.345,0-2.305,1.137-2.305,2.93
			c0,1.52,0.768,2.785,2.288,2.785c0.865,0,1.649-0.545,1.953-1.441c0.08-0.24,0.112-0.512,0.112-0.752V424.67z"/>
		<path fill="#FFFFFF" d="M-516.815,425.422c0,2.865-1.985,4.114-3.858,4.114c-2.097,0-3.713-1.536-3.713-3.985
			c0-2.594,1.696-4.114,3.842-4.114C-518.32,421.437-516.815,423.053-516.815,425.422z M-522.962,425.502
			c0,1.697,0.976,2.978,2.353,2.978c1.345,0,2.353-1.265,2.353-3.009c0-1.312-0.656-2.978-2.32-2.978
			C-522.242,422.493-522.962,424.029-522.962,425.502z"/>
		<path fill="#FFFFFF" d="M-504.64,425.422c0,2.865-1.985,4.114-3.858,4.114c-2.097,0-3.713-1.536-3.713-3.985
			c0-2.594,1.696-4.114,3.842-4.114C-506.145,421.437-504.64,423.053-504.64,425.422z M-510.786,425.502
			c0,1.697,0.976,2.978,2.353,2.978c1.345,0,2.353-1.265,2.353-3.009c0-1.312-0.656-2.978-2.32-2.978
			C-510.066,422.493-510.786,424.029-510.786,425.502z"/>
		<path fill="#FFFFFF" d="M-502.866,423.709c0-0.8-0.017-1.456-0.064-2.096h1.248l0.08,1.279h0.032
			c0.385-0.736,1.28-1.456,2.562-1.456c1.072,0,2.736,0.641,2.736,3.298v4.625h-1.408v-4.465c0-1.249-0.464-2.289-1.793-2.289
			c-0.928,0-1.648,0.656-1.889,1.44c-0.063,0.176-0.096,0.416-0.096,0.656v4.657h-1.408V423.709z"/>
		<path fill="#FFFFFF" d="M-489.154,419.756h-3.281v-1.185h7.987v1.185h-3.298v9.604h-1.408V419.756z"/>
		<path fill="#FFFFFF" d="M-480.85,424.51v1.041h-3.953v-1.041H-480.85z"/>
		<path fill="#FFFFFF" d="M-479.347,427.663c0.624,0.384,1.536,0.704,2.497,0.704c1.425,0,2.257-0.752,2.257-1.84
			c0-1.009-0.576-1.586-2.033-2.146c-1.761-0.624-2.849-1.536-2.849-3.058c0-1.68,1.393-2.929,3.489-2.929
			c1.104,0,1.905,0.256,2.385,0.528l-0.384,1.137c-0.353-0.192-1.072-0.513-2.049-0.513c-1.473,0-2.033,0.88-2.033,1.616
			c0,1.009,0.656,1.505,2.146,2.082c1.824,0.703,2.753,1.584,2.753,3.168c0,1.665-1.232,3.105-3.777,3.105
			c-1.041,0-2.178-0.304-2.754-0.688L-479.347,427.663z"/>
		<path fill="#FFFFFF" d="M-471.314,417.995h1.408v4.834h0.032c0.224-0.399,0.576-0.752,1.008-0.992c0.416-0.24,0.913-0.4,1.44-0.4
			c1.041,0,2.705,0.641,2.705,3.313v4.609h-1.408v-4.449c0-1.248-0.464-2.305-1.793-2.305c-0.912,0-1.633,0.641-1.889,1.408
			c-0.08,0.191-0.096,0.4-0.096,0.672v4.674h-1.408V417.995z"/>
		<path fill="#FFFFFF" d="M-460.866,419.436c0.016,0.48-0.336,0.865-0.896,0.865c-0.496,0-0.849-0.385-0.849-0.865
			c0-0.496,0.368-0.88,0.881-0.88C-461.202,418.556-460.866,418.939-460.866,419.436z M-462.435,429.359v-7.746h1.408v7.746
			H-462.435z"/>
		<path fill="#FFFFFF" d="M-458.69,424.029c0-0.912-0.017-1.696-0.064-2.416h1.232l0.048,1.52h0.064
			c0.352-1.04,1.2-1.696,2.145-1.696c0.16,0,0.272,0.017,0.4,0.048v1.328c-0.145-0.031-0.288-0.047-0.48-0.047
			c-0.992,0-1.696,0.752-1.889,1.809c-0.032,0.191-0.064,0.416-0.064,0.656v4.129h-1.392V424.029z"/>
		<path fill="#FFFFFF" d="M-451.378,419.388v2.226h2.017v1.072h-2.017v4.178c0,0.96,0.272,1.504,1.057,1.504
			c0.368,0,0.64-0.048,0.816-0.096l0.063,1.057c-0.271,0.111-0.704,0.191-1.248,0.191c-0.656,0-1.185-0.207-1.521-0.592
			c-0.4-0.416-0.545-1.104-0.545-2.018v-4.225h-1.2v-1.072h1.2v-1.857L-451.378,419.388z"/>
		<path fill="#FFFFFF" d="M-445.235,431.297c1.137-1.585,2.017-3.666,2.017-6.547c0-2.865-0.864-4.914-2.017-6.498h1.088
			c1.024,1.312,2.098,3.361,2.098,6.514c0,3.138-1.073,5.17-2.098,6.531H-445.235z"/>
	</g>
	<g>
		<path fill="#828282" d="M-860.23-311h4.48c0.541,0,1.015,0.063,1.421,0.189c0.406,0.126,0.74,0.306,1.001,0.539
			c0.532,0.476,0.798,1.102,0.798,1.876c0,0.513-0.143,0.936-0.427,1.267c-0.285,0.332-0.665,0.577-1.141,0.735v0.042
			c0.56,0.159,1.01,0.457,1.351,0.896c0.341,0.438,0.511,0.966,0.511,1.582c0,0.476-0.073,0.879-0.217,1.211
			c-0.145,0.331-0.366,0.623-0.665,0.875c-0.289,0.252-0.648,0.448-1.078,0.588c-0.43,0.14-0.91,0.21-1.442,0.21h-4.592V-311z
			 M-856.002-306.968c0.448,0,0.807-0.103,1.078-0.308c0.271-0.205,0.406-0.504,0.406-0.896c0-0.373-0.128-0.663-0.385-0.868
			c-0.257-0.206-0.609-0.308-1.057-0.308h-2.24v2.38H-856.002z M-858.2-302.67h2.338c0.495,0,0.879-0.124,1.155-0.371
			c0.275-0.248,0.413-0.576,0.413-0.987c0-0.476-0.154-0.835-0.462-1.078c-0.308-0.242-0.695-0.364-1.162-0.364h-2.282V-302.67z"/>
		<path fill="#828282" d="M-851.046-311h4.592c0.485,0,0.926,0.067,1.323,0.203c0.396,0.136,0.735,0.325,1.015,0.567
			c0.28,0.243,0.497,0.535,0.651,0.875c0.154,0.341,0.231,0.721,0.231,1.141c0,0.588-0.145,1.095-0.434,1.519
			c-0.29,0.425-0.756,0.726-1.4,0.903v0.042c0.457,0.13,0.81,0.348,1.057,0.651c0.247,0.303,0.403,0.758,0.469,1.365
			c0.037,0.355,0.063,0.684,0.077,0.987s0.033,0.572,0.056,0.805c0.023,0.233,0.058,0.425,0.105,0.574
			c0.046,0.149,0.112,0.243,0.196,0.28v0.098h-1.946c-0.065-0.028-0.117-0.114-0.154-0.259c-0.037-0.145-0.068-0.324-0.091-0.539
			c-0.023-0.215-0.044-0.453-0.063-0.714c-0.019-0.261-0.038-0.527-0.056-0.798c-0.047-0.55-0.227-0.973-0.539-1.267
			s-0.786-0.441-1.421-0.441h-1.638v4.018h-2.03V-311z M-849.016-306.576h2.156c0.56,0,0.975-0.128,1.246-0.385
			c0.271-0.256,0.406-0.585,0.406-0.987c0-0.411-0.131-0.749-0.392-1.015c-0.261-0.266-0.663-0.399-1.204-0.399h-2.212V-306.576z"/>
		<path fill="#828282" d="M-839.104-311h2.1l3.528,10.01h-2.114l-0.672-2.128h-3.612l-0.658,2.128h-2.058L-839.104-311z
			 M-839.398-304.672h2.646l-0.896-2.884c-0.047-0.131-0.091-0.285-0.133-0.462s-0.086-0.345-0.133-0.504
			c-0.046-0.187-0.093-0.378-0.14-0.574h-0.028c-0.056,0.196-0.107,0.387-0.154,0.574c-0.047,0.159-0.091,0.327-0.133,0.504
			s-0.086,0.331-0.133,0.462L-839.398-304.672z"/>
		<path fill="#828282" d="M-832.636-311h2.058l3.332,5.586c0.074,0.14,0.154,0.292,0.238,0.455c0.084,0.164,0.163,0.315,0.238,0.455
			c0.084,0.168,0.158,0.332,0.224,0.49h0.028c-0.01-0.196-0.019-0.396-0.028-0.602c-0.009-0.177-0.016-0.366-0.021-0.567
			s-0.007-0.39-0.007-0.567V-311h2.002v10.01h-1.96l-3.416-5.53c-0.084-0.131-0.166-0.278-0.245-0.441
			c-0.079-0.163-0.156-0.315-0.231-0.455c-0.084-0.168-0.164-0.332-0.238-0.49h-0.028c0.009,0.206,0.019,0.411,0.028,0.616
			c0.009,0.177,0.016,0.366,0.021,0.567c0.004,0.201,0.007,0.39,0.007,0.567v5.166h-2.002V-311z"/>
		<path fill="#828282" d="M-823.032-311h3.906c0.672,0,1.279,0.128,1.82,0.385c0.541,0.257,1.003,0.611,1.386,1.064
			s0.677,0.992,0.882,1.617c0.205,0.625,0.308,1.307,0.308,2.044c0,0.821-0.133,1.57-0.399,2.247
			c-0.266,0.677-0.665,1.239-1.197,1.687c-0.374,0.308-0.803,0.546-1.288,0.714s-1.045,0.252-1.68,0.252h-3.738V-311z
			 M-819.434-302.74c0.952,0,1.631-0.275,2.037-0.826c0.406-0.55,0.609-1.325,0.609-2.324c0-0.495-0.054-0.95-0.161-1.365
			c-0.107-0.415-0.271-0.772-0.49-1.071s-0.49-0.53-0.812-0.693c-0.322-0.164-0.698-0.245-1.127-0.245h-1.624v6.524H-819.434z"/>
		<path fill="#828282" d="M-813.61-311h2.03v10.01h-2.03V-311z"/>
		<path fill="#828282" d="M-810.026-311h2.058l3.332,5.586c0.074,0.14,0.154,0.292,0.238,0.455c0.084,0.164,0.163,0.315,0.238,0.455
			c0.084,0.168,0.158,0.332,0.224,0.49h0.028c-0.01-0.196-0.019-0.396-0.028-0.602c-0.009-0.177-0.016-0.366-0.021-0.567
			s-0.007-0.39-0.007-0.567V-311h2.002v10.01h-1.96l-3.416-5.53c-0.084-0.131-0.166-0.278-0.245-0.441
			c-0.079-0.163-0.156-0.315-0.231-0.455c-0.084-0.168-0.164-0.332-0.238-0.49h-0.028c0.009,0.206,0.019,0.411,0.028,0.616
			c0.009,0.177,0.016,0.366,0.021,0.567c0.004,0.201,0.007,0.39,0.007,0.567v5.166h-2.002V-311z"/>
		<path fill="#828282" d="M-793.156-302.334h-0.028c-0.345,0.579-0.751,0.982-1.218,1.211c-0.467,0.229-0.999,0.343-1.596,0.343
			c-0.756,0-1.426-0.128-2.009-0.385c-0.583-0.257-1.085-0.614-1.505-1.071c-0.42-0.466-0.742-1.015-0.966-1.645
			c-0.224-0.63-0.336-1.323-0.336-2.079c0-0.84,0.14-1.61,0.42-2.31c0.28-0.7,0.686-1.293,1.218-1.778
			c0.411-0.373,0.882-0.658,1.414-0.854c0.532-0.196,1.134-0.294,1.806-0.294c0.625,0,1.188,0.082,1.687,0.245
			c0.5,0.164,0.926,0.395,1.281,0.693c0.354,0.299,0.642,0.653,0.861,1.064c0.219,0.411,0.371,0.859,0.455,1.344h-1.988
			c-0.112-0.485-0.355-0.884-0.728-1.197c-0.374-0.312-0.882-0.469-1.526-0.469c-0.476,0-0.889,0.091-1.239,0.273
			s-0.644,0.434-0.882,0.756c-0.238,0.322-0.416,0.7-0.532,1.134c-0.117,0.434-0.175,0.898-0.175,1.393
			c0,0.514,0.065,0.987,0.196,1.421c0.13,0.434,0.317,0.807,0.56,1.12c0.243,0.313,0.537,0.558,0.882,0.735s0.733,0.266,1.162,0.266
			c0.392,0,0.747-0.065,1.064-0.196c0.317-0.13,0.588-0.303,0.812-0.518c0.224-0.214,0.396-0.457,0.518-0.728
			c0.121-0.271,0.182-0.546,0.182-0.826v-0.056h-2.408v-1.568h4.214v5.32h-1.526L-793.156-302.334z"/>
		<path fill="#828282" d="M-788.019-307.234h2.044v2.03h-2.044V-307.234z M-788.019-303.02h2.044v2.03h-2.044V-303.02z"/>
		<path fill="#171617" d="M-776.076-300.766c-1.363,0-2.415-0.287-3.157-0.861c-0.742-0.574-1.132-1.393-1.169-2.457h1.988
			c0.075,0.607,0.289,1.039,0.644,1.295c0.354,0.257,0.891,0.385,1.61,0.385c0.261,0,0.509-0.023,0.742-0.07
			c0.233-0.047,0.438-0.121,0.616-0.224c0.177-0.103,0.32-0.235,0.427-0.399c0.107-0.163,0.161-0.362,0.161-0.595
			c0-0.243-0.058-0.443-0.175-0.602c-0.117-0.158-0.282-0.292-0.497-0.399c-0.215-0.107-0.474-0.201-0.777-0.28
			s-0.646-0.161-1.029-0.245c-0.448-0.103-0.88-0.217-1.295-0.343c-0.415-0.126-0.779-0.296-1.092-0.511
			c-0.313-0.214-0.565-0.49-0.756-0.826c-0.191-0.336-0.287-0.765-0.287-1.288c0-0.495,0.096-0.929,0.287-1.302
			c0.191-0.373,0.457-0.686,0.798-0.938s0.744-0.441,1.211-0.567s0.98-0.189,1.54-0.189c1.129,0,2.037,0.266,2.723,0.798
			c0.686,0.532,1.066,1.307,1.141,2.324h-1.946c-0.056-0.504-0.261-0.882-0.616-1.134c-0.355-0.252-0.793-0.378-1.316-0.378
			c-0.551,0-0.989,0.107-1.316,0.322c-0.327,0.214-0.49,0.499-0.49,0.854c0,0.205,0.044,0.375,0.133,0.511
			c0.088,0.135,0.224,0.254,0.406,0.357c0.182,0.103,0.408,0.191,0.679,0.266s0.593,0.154,0.966,0.238
			c0.514,0.112,0.997,0.236,1.449,0.371s0.849,0.315,1.19,0.539s0.609,0.509,0.805,0.854c0.196,0.345,0.294,0.789,0.294,1.33
			c0,0.504-0.098,0.955-0.294,1.351c-0.196,0.396-0.467,0.728-0.812,0.994c-0.346,0.266-0.756,0.469-1.232,0.609
			C-774.998-300.836-775.516-300.766-776.076-300.766z"/>
		<path fill="#171617" d="M-771.61-308.172h0.994v-2.24h1.862v2.24h1.232v1.26h-1.232v3.808c0,0.271,0.065,0.457,0.196,0.56
			c0.13,0.103,0.303,0.154,0.518,0.154h0.364c0.065,0,0.131-0.005,0.196-0.014v1.4c-0.094,0.01-0.196,0.014-0.308,0.014
			c-0.103,0.009-0.229,0.014-0.378,0.014c-0.149,0-0.317,0-0.504,0c-0.233,0-0.465-0.026-0.693-0.077s-0.436-0.142-0.623-0.273
			c-0.187-0.131-0.338-0.308-0.455-0.532c-0.117-0.224-0.175-0.504-0.175-0.84v-4.214h-0.994V-308.172z"/>
		<path fill="#171617" d="M-763.238-300.78c-0.598,0-1.127-0.098-1.589-0.294s-0.852-0.464-1.169-0.805
			c-0.317-0.34-0.558-0.744-0.721-1.211c-0.164-0.466-0.245-0.966-0.245-1.498c0-0.532,0.086-1.029,0.259-1.491
			s0.416-0.861,0.728-1.197s0.686-0.602,1.12-0.798s0.912-0.294,1.435-0.294c0.579,0,1.087,0.105,1.526,0.315
			c0.438,0.21,0.807,0.506,1.106,0.889s0.525,0.837,0.679,1.365c0.154,0.527,0.231,1.113,0.231,1.757h-5.208
			c0.075,0.56,0.264,0.999,0.567,1.316s0.726,0.476,1.267,0.476c0.373,0,0.672-0.08,0.896-0.238s0.387-0.373,0.49-0.644h1.876
			c-0.065,0.317-0.184,0.619-0.357,0.903s-0.396,0.534-0.672,0.749c-0.275,0.215-0.6,0.385-0.973,0.511
			C-762.365-300.843-762.781-300.78-763.238-300.78z M-763.392-306.898c-0.504,0-0.887,0.138-1.148,0.413
			c-0.261,0.275-0.434,0.651-0.518,1.127h3.192c-0.028-0.457-0.18-0.828-0.455-1.113
			C-762.596-306.756-762.954-306.898-763.392-306.898z"/>
		<path fill="#171617" d="M-758.996-308.172h1.834v0.896h0.042c0.233-0.317,0.52-0.579,0.861-0.784
			c0.34-0.206,0.758-0.308,1.253-0.308c0.476,0,0.905,0.093,1.288,0.28c0.382,0.187,0.711,0.446,0.987,0.777
			c0.275,0.331,0.485,0.73,0.63,1.197c0.145,0.467,0.217,0.98,0.217,1.54c0,0.579-0.075,1.104-0.224,1.575s-0.362,0.87-0.637,1.197
			c-0.275,0.327-0.604,0.579-0.987,0.756s-0.803,0.266-1.26,0.266c-0.504,0-0.924-0.093-1.26-0.28
			c-0.336-0.187-0.606-0.434-0.812-0.742h-0.028v3.164h-1.904V-308.172z M-755.398-302.362c0.485,0,0.87-0.189,1.155-0.567
			c0.285-0.378,0.427-0.908,0.427-1.589s-0.128-1.237-0.385-1.666c-0.257-0.429-0.679-0.644-1.267-0.644
			c-0.299,0-0.553,0.061-0.763,0.182c-0.21,0.121-0.383,0.285-0.518,0.49c-0.135,0.206-0.233,0.45-0.294,0.735
			c-0.061,0.285-0.091,0.586-0.091,0.903c0,0.653,0.147,1.176,0.441,1.568S-755.968-302.362-755.398-302.362z"/>
		<path fill="#171617" d="M-749.098-307.234h0.042c0.261-0.382,0.551-0.667,0.868-0.854c0.317-0.187,0.723-0.28,1.218-0.28
			c0.373,0,0.711,0.068,1.015,0.203c0.303,0.135,0.562,0.322,0.777,0.56c0.215,0.238,0.383,0.521,0.504,0.847
			c0.122,0.327,0.182,0.686,0.182,1.078v4.69h-1.904v-4.41c0-0.392-0.107-0.709-0.322-0.952s-0.523-0.364-0.924-0.364
			c-0.42,0-0.768,0.152-1.043,0.455c-0.275,0.303-0.413,0.703-0.413,1.197v4.074h-1.904V-311h1.904V-307.234z"/>
		<path fill="#171617" d="M-739.942-300.78c-0.598,0-1.127-0.098-1.589-0.294s-0.852-0.464-1.169-0.805
			c-0.317-0.34-0.558-0.744-0.721-1.211c-0.164-0.466-0.245-0.966-0.245-1.498c0-0.532,0.086-1.029,0.259-1.491
			s0.416-0.861,0.728-1.197s0.686-0.602,1.12-0.798s0.912-0.294,1.435-0.294c0.579,0,1.087,0.105,1.526,0.315
			c0.438,0.21,0.807,0.506,1.106,0.889s0.525,0.837,0.679,1.365c0.154,0.527,0.231,1.113,0.231,1.757h-5.208
			c0.075,0.56,0.264,0.999,0.567,1.316s0.726,0.476,1.267,0.476c0.373,0,0.672-0.08,0.896-0.238s0.387-0.373,0.49-0.644h1.876
			c-0.065,0.317-0.184,0.619-0.357,0.903s-0.396,0.534-0.672,0.749c-0.275,0.215-0.6,0.385-0.973,0.511
			C-739.069-300.843-739.485-300.78-739.942-300.78z M-740.096-306.898c-0.504,0-0.887,0.138-1.148,0.413
			c-0.261,0.275-0.434,0.651-0.518,1.127h3.192c-0.028-0.457-0.18-0.828-0.455-1.113
			C-739.3-306.756-739.658-306.898-740.096-306.898z"/>
		<path fill="#171617" d="M-733.838-307.192h0.042c0.243-0.392,0.534-0.686,0.875-0.882c0.34-0.196,0.758-0.294,1.253-0.294
			c0.373,0,0.711,0.068,1.015,0.203c0.303,0.135,0.562,0.322,0.777,0.56c0.215,0.238,0.383,0.521,0.504,0.847
			c0.122,0.327,0.182,0.686,0.182,1.078v4.69h-1.904v-4.41c0-0.392-0.107-0.709-0.322-0.952s-0.523-0.364-0.924-0.364
			c-0.42,0-0.768,0.152-1.043,0.455c-0.275,0.303-0.413,0.703-0.413,1.197v4.074h-1.904v-7.182h1.862V-307.192z"/>
		<path fill="#171617" d="M-725.508-311h2.856l1.414,5.026c0.084,0.317,0.166,0.635,0.245,0.952
			c0.079,0.318,0.147,0.607,0.203,0.868c0.065,0.308,0.126,0.602,0.182,0.882h0.028c0.056-0.28,0.116-0.574,0.182-0.882
			c0.056-0.261,0.119-0.55,0.189-0.868c0.07-0.317,0.152-0.634,0.245-0.952l1.414-5.026h2.898v10.01h-1.89v-5.74
			c0-0.205,0.002-0.427,0.007-0.665c0.004-0.238,0.016-0.464,0.035-0.679c0.009-0.243,0.023-0.485,0.042-0.728h-0.028
			c-0.047,0.233-0.093,0.462-0.14,0.686c-0.047,0.196-0.096,0.401-0.147,0.616c-0.051,0.214-0.1,0.415-0.147,0.602l-1.722,5.908
			h-1.946l-1.68-5.908c-0.056-0.187-0.107-0.387-0.154-0.602c-0.047-0.215-0.093-0.42-0.14-0.616
			c-0.047-0.224-0.093-0.453-0.14-0.686h-0.028c0.009,0.243,0.023,0.485,0.042,0.728c0.009,0.215,0.019,0.441,0.028,0.679
			c0.009,0.238,0.014,0.459,0.014,0.665v5.74h-1.862V-311z"/>
		<path fill="#171617" d="M-709.73-300.99v-0.84h-0.042c-0.243,0.327-0.521,0.581-0.833,0.763c-0.312,0.182-0.721,0.273-1.225,0.273
			c-0.803,0-1.418-0.233-1.848-0.7c-0.43-0.467-0.644-1.097-0.644-1.89v-4.788h1.89v4.466c0,0.42,0.095,0.742,0.287,0.966
			s0.492,0.336,0.903,0.336c0.448,0,0.8-0.151,1.057-0.455c0.257-0.303,0.385-0.693,0.385-1.169v-4.144h1.904v7.182H-709.73z"/>
		<path fill="#171617" d="M-706.636-311h1.904v10.01h-1.904V-311z"/>
		<path fill="#171617" d="M-701.568-307.234h0.042c0.261-0.382,0.551-0.667,0.868-0.854c0.317-0.187,0.723-0.28,1.218-0.28
			c0.373,0,0.711,0.068,1.015,0.203c0.303,0.135,0.562,0.322,0.777,0.56c0.215,0.238,0.383,0.521,0.504,0.847
			c0.122,0.327,0.182,0.686,0.182,1.078v4.69h-1.904v-4.41c0-0.392-0.107-0.709-0.322-0.952s-0.523-0.364-0.924-0.364
			c-0.42,0-0.768,0.152-1.043,0.455c-0.275,0.303-0.413,0.703-0.413,1.197v4.074h-1.904V-311h1.904V-307.234z"/>
		<path fill="#171617" d="M-691.264-300.99c-0.056-0.075-0.103-0.187-0.14-0.336c-0.038-0.149-0.065-0.303-0.084-0.462h-0.028
			c-0.094,0.14-0.199,0.268-0.315,0.385s-0.257,0.217-0.42,0.301s-0.357,0.151-0.581,0.203c-0.224,0.051-0.49,0.077-0.798,0.077
			c-0.737,0-1.339-0.187-1.806-0.56c-0.467-0.373-0.7-0.919-0.7-1.638c0-0.392,0.075-0.724,0.224-0.994
			c0.149-0.271,0.354-0.495,0.616-0.672s0.567-0.315,0.917-0.413c0.35-0.098,0.726-0.175,1.127-0.231
			c0.597-0.084,1.036-0.173,1.316-0.266c0.28-0.093,0.42-0.275,0.42-0.546c0-0.261-0.101-0.469-0.301-0.623
			c-0.201-0.154-0.502-0.231-0.903-0.231c-0.448,0-0.784,0.082-1.008,0.245c-0.224,0.164-0.35,0.418-0.378,0.763h-1.694
			c0.009-0.317,0.079-0.618,0.21-0.903c0.13-0.285,0.322-0.534,0.574-0.749c0.252-0.215,0.569-0.387,0.952-0.518
			s0.835-0.196,1.358-0.196c1.073,0,1.846,0.231,2.317,0.693c0.471,0.462,0.707,1.113,0.707,1.953v3.654
			c0,0.542,0.084,0.873,0.252,0.994v0.07H-691.264z M-693.168-302.152c0.271,0,0.511-0.04,0.721-0.119
			c0.21-0.08,0.387-0.182,0.532-0.308c0.145-0.126,0.254-0.271,0.329-0.434c0.075-0.163,0.112-0.333,0.112-0.511v-1.078
			c-0.168,0.103-0.371,0.184-0.609,0.245c-0.238,0.061-0.478,0.119-0.721,0.175c-0.504,0.112-0.877,0.243-1.12,0.392
			s-0.364,0.392-0.364,0.728c0,0.336,0.103,0.572,0.308,0.707C-693.775-302.22-693.504-302.152-693.168-302.152z"/>
		<path fill="#171617" d="M-688.451-311h1.904v10.01h-1.904V-311z"/>
		<path fill="#171617" d="M-685.259-311h1.904v10.01h-1.904V-311z"/>
	</g>
	<g>
		<path fill="#828282" d="M-860.23-293h3.906c0.672,0,1.279,0.128,1.82,0.385c0.541,0.257,1.003,0.611,1.386,1.064
			s0.677,0.992,0.882,1.617c0.205,0.625,0.308,1.307,0.308,2.044c0,0.821-0.133,1.57-0.399,2.247
			c-0.266,0.677-0.665,1.239-1.197,1.687c-0.374,0.308-0.803,0.546-1.288,0.714s-1.045,0.252-1.68,0.252h-3.738V-293z
			 M-856.632-284.74c0.952,0,1.631-0.275,2.037-0.826c0.406-0.55,0.609-1.325,0.609-2.324c0-0.495-0.054-0.95-0.161-1.365
			c-0.107-0.415-0.271-0.772-0.49-1.071s-0.49-0.53-0.812-0.693c-0.322-0.164-0.698-0.245-1.127-0.245h-1.624v6.524H-856.632z"/>
		<path fill="#828282" d="M-848.624-293h2.1l3.528,10.01h-2.114l-0.672-2.128h-3.612l-0.658,2.128h-2.058L-848.624-293z
			 M-848.918-286.672h2.646l-0.896-2.884c-0.047-0.131-0.091-0.285-0.133-0.462s-0.086-0.345-0.133-0.504
			c-0.046-0.187-0.093-0.378-0.14-0.574h-0.028c-0.056,0.196-0.107,0.387-0.154,0.574c-0.047,0.159-0.091,0.327-0.133,0.504
			s-0.086,0.331-0.133,0.462L-848.918-286.672z"/>
		<path fill="#828282" d="M-843.934-293h8.05v1.708h-3.01v8.302h-2.03v-8.302h-3.01V-293z"/>
		<path fill="#828282" d="M-834.862-293h7.364v1.708h-5.334v2.24h4.676v1.666h-4.676v2.702h5.376v1.694h-7.406V-293z"/>
		<path fill="#828282" d="M-824.068-289.234h2.044v2.03h-2.044V-289.234z M-824.068-285.02h2.044v2.03h-2.044V-285.02z"/>
		<path fill="#171617" d="M-812.126-282.766c-1.363,0-2.415-0.287-3.157-0.861c-0.742-0.574-1.132-1.393-1.169-2.457h1.988
			c0.075,0.607,0.289,1.039,0.644,1.295c0.354,0.257,0.891,0.385,1.61,0.385c0.261,0,0.509-0.023,0.742-0.07
			c0.233-0.047,0.438-0.121,0.616-0.224c0.177-0.103,0.32-0.235,0.427-0.399c0.107-0.163,0.161-0.362,0.161-0.595
			c0-0.243-0.058-0.443-0.175-0.602c-0.117-0.158-0.282-0.292-0.497-0.399c-0.215-0.107-0.474-0.201-0.777-0.28
			s-0.646-0.161-1.029-0.245c-0.448-0.103-0.88-0.217-1.295-0.343c-0.415-0.126-0.779-0.296-1.092-0.511
			c-0.313-0.214-0.565-0.49-0.756-0.826c-0.191-0.336-0.287-0.765-0.287-1.288c0-0.495,0.096-0.929,0.287-1.302
			c0.191-0.373,0.457-0.686,0.798-0.938s0.744-0.441,1.211-0.567s0.98-0.189,1.54-0.189c1.129,0,2.037,0.266,2.723,0.798
			c0.686,0.532,1.066,1.307,1.141,2.324h-1.946c-0.056-0.504-0.261-0.882-0.616-1.134c-0.355-0.252-0.793-0.378-1.316-0.378
			c-0.551,0-0.989,0.107-1.316,0.322c-0.327,0.214-0.49,0.499-0.49,0.854c0,0.205,0.044,0.375,0.133,0.511
			c0.088,0.135,0.224,0.254,0.406,0.357c0.182,0.103,0.408,0.191,0.679,0.266s0.593,0.154,0.966,0.238
			c0.514,0.112,0.997,0.236,1.449,0.371s0.849,0.315,1.19,0.539s0.609,0.509,0.805,0.854c0.196,0.345,0.294,0.789,0.294,1.33
			c0,0.504-0.098,0.955-0.294,1.351c-0.196,0.396-0.467,0.728-0.812,0.994c-0.346,0.266-0.756,0.469-1.232,0.609
			C-811.048-282.836-811.566-282.766-812.126-282.766z"/>
		<path fill="#171617" d="M-803.796-282.78c-0.598,0-1.127-0.098-1.589-0.294s-0.852-0.464-1.169-0.805
			c-0.317-0.34-0.558-0.744-0.721-1.211c-0.164-0.466-0.245-0.966-0.245-1.498c0-0.532,0.086-1.029,0.259-1.491
			s0.416-0.861,0.728-1.197s0.686-0.602,1.12-0.798s0.912-0.294,1.435-0.294c0.579,0,1.087,0.105,1.526,0.315
			c0.438,0.21,0.807,0.506,1.106,0.889s0.525,0.837,0.679,1.365c0.154,0.527,0.231,1.113,0.231,1.757h-5.208
			c0.075,0.56,0.264,0.999,0.567,1.316s0.726,0.476,1.267,0.476c0.373,0,0.672-0.08,0.896-0.238s0.387-0.373,0.49-0.644h1.876
			c-0.065,0.317-0.184,0.619-0.357,0.903s-0.396,0.534-0.672,0.749c-0.275,0.215-0.6,0.385-0.973,0.511
			C-802.923-282.843-803.339-282.78-803.796-282.78z M-803.95-288.898c-0.504,0-0.887,0.138-1.148,0.413
			c-0.261,0.275-0.434,0.651-0.518,1.127h3.192c-0.028-0.457-0.18-0.828-0.455-1.113
			C-803.154-288.756-803.512-288.898-803.95-288.898z"/>
		<path fill="#171617" d="M-799.554-290.172h1.834v0.896h0.042c0.233-0.317,0.52-0.579,0.861-0.784
			c0.34-0.206,0.758-0.308,1.253-0.308c0.476,0,0.905,0.093,1.288,0.28c0.382,0.187,0.711,0.446,0.987,0.777
			c0.275,0.331,0.485,0.73,0.63,1.197c0.145,0.467,0.217,0.98,0.217,1.54c0,0.579-0.075,1.104-0.224,1.575s-0.362,0.87-0.637,1.197
			c-0.275,0.327-0.604,0.579-0.987,0.756s-0.803,0.266-1.26,0.266c-0.504,0-0.924-0.093-1.26-0.28
			c-0.336-0.187-0.606-0.434-0.812-0.742h-0.028v3.164h-1.904V-290.172z M-795.957-284.362c0.485,0,0.87-0.189,1.155-0.567
			c0.285-0.378,0.427-0.908,0.427-1.589s-0.128-1.237-0.385-1.666c-0.257-0.429-0.679-0.644-1.267-0.644
			c-0.299,0-0.553,0.061-0.763,0.182c-0.21,0.121-0.383,0.285-0.518,0.49c-0.135,0.206-0.233,0.45-0.294,0.735
			c-0.061,0.285-0.091,0.586-0.091,0.903c0,0.653,0.147,1.176,0.441,1.568S-796.526-284.362-795.957-284.362z"/>
		<path fill="#171617" d="M-792.19-290.172h0.994v-2.24h1.862v2.24h1.232v1.26h-1.232v3.808c0,0.271,0.065,0.457,0.196,0.56
			c0.13,0.103,0.303,0.154,0.518,0.154h0.364c0.065,0,0.131-0.005,0.196-0.014v1.4c-0.094,0.01-0.196,0.014-0.308,0.014
			c-0.103,0.009-0.229,0.014-0.378,0.014c-0.149,0-0.317,0-0.504,0c-0.233,0-0.465-0.026-0.693-0.077s-0.436-0.142-0.623-0.273
			c-0.187-0.131-0.338-0.308-0.455-0.532c-0.117-0.224-0.175-0.504-0.175-0.84v-4.214h-0.994V-290.172z"/>
		<path fill="#171617" d="M-783.818-282.78c-0.598,0-1.127-0.098-1.589-0.294s-0.852-0.464-1.169-0.805
			c-0.317-0.34-0.558-0.744-0.721-1.211c-0.164-0.466-0.245-0.966-0.245-1.498c0-0.532,0.086-1.029,0.259-1.491
			s0.416-0.861,0.728-1.197s0.686-0.602,1.12-0.798s0.912-0.294,1.435-0.294c0.579,0,1.087,0.105,1.526,0.315
			c0.438,0.21,0.807,0.506,1.106,0.889s0.525,0.837,0.679,1.365c0.154,0.527,0.231,1.113,0.231,1.757h-5.208
			c0.075,0.56,0.264,0.999,0.567,1.316s0.726,0.476,1.267,0.476c0.373,0,0.672-0.08,0.896-0.238s0.387-0.373,0.49-0.644h1.876
			c-0.065,0.317-0.184,0.619-0.357,0.903s-0.396,0.534-0.672,0.749c-0.275,0.215-0.6,0.385-0.973,0.511
			C-782.945-282.843-783.361-282.78-783.818-282.78z M-783.972-288.898c-0.504,0-0.887,0.138-1.148,0.413
			c-0.261,0.275-0.434,0.651-0.518,1.127h3.192c-0.028-0.457-0.18-0.828-0.455-1.113
			C-783.176-288.756-783.534-288.898-783.972-288.898z"/>
		<path fill="#171617" d="M-779.576-290.172h1.834v0.966h0.042c0.196-0.327,0.466-0.602,0.812-0.826
			c0.345-0.224,0.77-0.336,1.274-0.336c0.457,0,0.858,0.114,1.204,0.343c0.345,0.229,0.606,0.535,0.784,0.917h0.028
			c0.242-0.392,0.548-0.7,0.917-0.924c0.368-0.224,0.781-0.336,1.239-0.336c0.756,0,1.339,0.227,1.75,0.679
			c0.411,0.453,0.616,1.076,0.616,1.869v4.83h-1.904v-4.508c0-0.411-0.096-0.719-0.287-0.924c-0.191-0.205-0.464-0.308-0.819-0.308
			c-0.401,0-0.716,0.143-0.945,0.427c-0.229,0.285-0.343,0.665-0.343,1.141v4.172h-1.904v-4.508c0-0.411-0.096-0.719-0.287-0.924
			c-0.191-0.205-0.464-0.308-0.819-0.308c-0.392,0-0.705,0.143-0.938,0.427c-0.233,0.285-0.35,0.665-0.35,1.141v4.172h-1.904
			V-290.172z"/>
		<path fill="#171617" d="M-763.896-282.78c-0.504,0-0.934-0.101-1.288-0.301c-0.355-0.201-0.64-0.469-0.854-0.805h-0.028v0.896
			h-1.834V-293h1.904v3.696h0.042c0.196-0.299,0.453-0.551,0.77-0.756c0.317-0.206,0.728-0.308,1.232-0.308
			c0.448,0,0.863,0.093,1.246,0.28c0.382,0.187,0.709,0.446,0.98,0.777c0.271,0.331,0.483,0.73,0.637,1.197
			c0.154,0.467,0.231,0.98,0.231,1.54c0,0.579-0.075,1.104-0.224,1.575c-0.149,0.471-0.357,0.87-0.623,1.197
			s-0.586,0.579-0.959,0.756C-763.038-282.869-763.449-282.78-763.896-282.78z M-764.316-284.376c0.495,0,0.873-0.191,1.134-0.574
			s0.392-0.924,0.392-1.624c0-0.672-0.133-1.216-0.399-1.631c-0.266-0.416-0.665-0.623-1.197-0.623
			c-0.299,0-0.553,0.058-0.763,0.175s-0.38,0.275-0.511,0.476s-0.227,0.441-0.287,0.721c-0.061,0.28-0.091,0.588-0.091,0.924
			c0,0.663,0.154,1.188,0.462,1.575S-764.849-284.376-764.316-284.376z"/>
		<path fill="#171617" d="M-756.603-282.78c-0.598,0-1.127-0.098-1.589-0.294s-0.852-0.464-1.169-0.805
			c-0.317-0.34-0.558-0.744-0.721-1.211c-0.164-0.466-0.245-0.966-0.245-1.498c0-0.532,0.086-1.029,0.259-1.491
			s0.416-0.861,0.728-1.197s0.686-0.602,1.12-0.798s0.912-0.294,1.435-0.294c0.579,0,1.087,0.105,1.526,0.315
			c0.438,0.21,0.807,0.506,1.106,0.889s0.525,0.837,0.679,1.365c0.154,0.527,0.231,1.113,0.231,1.757h-5.208
			c0.075,0.56,0.264,0.999,0.567,1.316s0.726,0.476,1.267,0.476c0.373,0,0.672-0.08,0.896-0.238s0.387-0.373,0.49-0.644h1.876
			c-0.065,0.317-0.184,0.619-0.357,0.903s-0.396,0.534-0.672,0.749c-0.275,0.215-0.6,0.385-0.973,0.511
			C-755.73-282.843-756.146-282.78-756.603-282.78z M-756.757-288.898c-0.504,0-0.887,0.138-1.148,0.413
			c-0.261,0.275-0.434,0.651-0.518,1.127h3.192c-0.028-0.457-0.18-0.828-0.455-1.113
			C-755.961-288.756-756.318-288.898-756.757-288.898z"/>
		<path fill="#171617" d="M-750.527-289.024h0.042c0.214-0.411,0.457-0.718,0.728-0.924c0.271-0.205,0.616-0.308,1.036-0.308
			c0.196,0,0.345,0.019,0.448,0.056v1.666h-0.042c-0.625-0.065-1.139,0.07-1.54,0.406c-0.401,0.336-0.602,0.882-0.602,1.638v3.5
			h-1.904v-7.182h1.834V-289.024z"/>
		<path fill="#171617" d="M-739.257-282.78c-0.504,0-0.952-0.063-1.344-0.189c-0.392-0.126-0.728-0.301-1.008-0.525
			s-0.504-0.488-0.672-0.791s-0.28-0.637-0.336-1.001h1.848c0.075,0.289,0.229,0.537,0.462,0.742
			c0.233,0.206,0.565,0.308,0.994,0.308c0.607,0,1.069-0.201,1.386-0.602c0.382-0.485,0.583-1.236,0.602-2.254h-0.028
			c-0.252,0.299-0.553,0.548-0.903,0.749s-0.791,0.301-1.323,0.301c-0.485,0-0.938-0.08-1.358-0.238s-0.784-0.385-1.092-0.679
			c-0.308-0.294-0.548-0.648-0.721-1.064c-0.173-0.415-0.259-0.879-0.259-1.393c0-0.495,0.091-0.947,0.273-1.358
			c0.182-0.411,0.434-0.765,0.756-1.064c0.322-0.298,0.705-0.529,1.148-0.693c0.443-0.163,0.922-0.245,1.435-0.245
			c1.279,0,2.261,0.401,2.947,1.204s1.029,2.021,1.029,3.654c0,0.766-0.068,1.463-0.203,2.093s-0.354,1.171-0.658,1.624
			c-0.304,0.453-0.7,0.803-1.19,1.05C-737.962-282.904-738.557-282.78-739.257-282.78z M-739.313-287.582
			c0.271,0,0.525-0.044,0.763-0.133c0.238-0.088,0.443-0.212,0.616-0.371c0.173-0.158,0.308-0.35,0.406-0.574
			s0.147-0.476,0.147-0.756c0-0.271-0.049-0.521-0.147-0.749c-0.098-0.229-0.233-0.425-0.406-0.588
			c-0.173-0.163-0.375-0.292-0.609-0.385s-0.485-0.14-0.756-0.14c-0.28,0-0.535,0.047-0.763,0.14s-0.427,0.222-0.595,0.385
			c-0.168,0.164-0.299,0.357-0.392,0.581c-0.093,0.224-0.14,0.467-0.14,0.728c0,0.551,0.166,0.999,0.497,1.344
			C-740.361-287.755-739.901-287.582-739.313-287.582z"/>
		<path fill="#171617" d="M-734.805-290.172h0.994v-2.24h1.862v2.24h1.232v1.26h-1.232v3.808c0,0.271,0.065,0.457,0.196,0.56
			c0.13,0.103,0.303,0.154,0.518,0.154h0.364c0.065,0,0.131-0.005,0.196-0.014v1.4c-0.094,0.01-0.196,0.014-0.308,0.014
			c-0.103,0.009-0.229,0.014-0.378,0.014c-0.149,0-0.317,0-0.504,0c-0.233,0-0.465-0.026-0.693-0.077s-0.436-0.142-0.623-0.273
			c-0.187-0.131-0.338-0.308-0.455-0.532c-0.117-0.224-0.175-0.504-0.175-0.84v-4.214h-0.994V-290.172z"/>
		<path fill="#171617" d="M-727.833-289.234h0.042c0.261-0.382,0.551-0.667,0.868-0.854c0.317-0.187,0.723-0.28,1.218-0.28
			c0.373,0,0.711,0.068,1.015,0.203c0.303,0.135,0.562,0.322,0.777,0.56c0.215,0.238,0.383,0.521,0.504,0.847
			c0.122,0.327,0.182,0.686,0.182,1.078v4.69h-1.904v-4.41c0-0.392-0.107-0.709-0.322-0.952s-0.523-0.364-0.924-0.364
			c-0.42,0-0.768,0.152-1.043,0.455c-0.275,0.303-0.413,0.703-0.413,1.197v4.074h-1.904V-293h1.904V-289.234z"/>
		<path fill="#171617" d="M-717.361-284.236c0.14-0.373,0.317-0.714,0.532-1.022s0.458-0.588,0.728-0.84
			c0.271-0.252,0.542-0.485,0.812-0.7c0.299-0.233,0.6-0.457,0.903-0.672c0.303-0.215,0.574-0.432,0.812-0.651
			c0.238-0.219,0.432-0.453,0.581-0.7c0.149-0.247,0.224-0.525,0.224-0.833c0-0.448-0.114-0.81-0.343-1.085
			c-0.229-0.275-0.558-0.413-0.987-0.413c-0.485,0-0.863,0.168-1.134,0.504c-0.271,0.336-0.416,0.817-0.434,1.442h-1.792
			c0-1.092,0.282-1.96,0.847-2.604c0.564-0.644,1.416-0.966,2.555-0.966c0.523,0,0.987,0.082,1.393,0.245
			c0.406,0.164,0.747,0.385,1.022,0.665s0.485,0.607,0.63,0.98c0.145,0.374,0.217,0.766,0.217,1.176c0,0.448-0.07,0.845-0.21,1.19
			s-0.324,0.651-0.553,0.917c-0.229,0.266-0.488,0.506-0.777,0.721c-0.29,0.215-0.579,0.42-0.868,0.616
			c-0.187,0.121-0.378,0.25-0.574,0.385c-0.196,0.136-0.38,0.275-0.553,0.42c-0.173,0.145-0.329,0.294-0.469,0.448
			s-0.252,0.306-0.336,0.455h4.424v1.568h-6.888C-717.58-283.447-717.501-283.863-717.361-284.236z"/>
		<path fill="#171617" d="M-705.881-282.766c-0.616,0-1.169-0.119-1.659-0.357c-0.49-0.238-0.91-0.574-1.26-1.008
			s-0.618-0.959-0.805-1.575c-0.187-0.616-0.28-1.307-0.28-2.072c0-0.765,0.096-1.458,0.287-2.079
			c0.191-0.621,0.462-1.148,0.812-1.582c0.35-0.434,0.772-0.768,1.267-1.001c0.495-0.233,1.045-0.35,1.652-0.35
			c0.616,0,1.171,0.117,1.666,0.35c0.495,0.233,0.915,0.567,1.26,1.001c0.345,0.434,0.609,0.961,0.791,1.582
			c0.182,0.621,0.273,1.314,0.273,2.079c0,0.766-0.091,1.456-0.273,2.072c-0.182,0.616-0.446,1.141-0.791,1.575
			s-0.765,0.77-1.26,1.008C-704.695-282.885-705.255-282.766-705.881-282.766z M-705.867-284.39c0.354,0,0.658-0.079,0.91-0.238
			c0.252-0.158,0.459-0.385,0.623-0.679c0.163-0.294,0.282-0.651,0.357-1.071c0.075-0.42,0.112-0.886,0.112-1.4
			c0-0.504-0.037-0.966-0.112-1.386c-0.075-0.42-0.194-0.777-0.357-1.071c-0.164-0.294-0.371-0.522-0.623-0.686
			c-0.252-0.163-0.556-0.245-0.91-0.245c-0.355,0-0.66,0.082-0.917,0.245c-0.257,0.164-0.467,0.392-0.63,0.686
			c-0.164,0.294-0.285,0.649-0.364,1.064c-0.079,0.416-0.119,0.88-0.119,1.393c0,0.504,0.04,0.966,0.119,1.386
			s0.201,0.777,0.364,1.071c0.163,0.294,0.373,0.523,0.63,0.686C-706.527-284.472-706.222-284.39-705.867-284.39z"/>
		<path fill="#171617" d="M-699.049-289.682h-2.17v-1.26c0.289-0.009,0.569-0.046,0.84-0.112c0.271-0.065,0.516-0.163,0.735-0.294
			c0.219-0.131,0.403-0.303,0.553-0.518s0.248-0.476,0.294-0.784h1.666v9.66h-1.918V-289.682z"/>
		<path fill="#171617" d="M-691.699-282.78c-0.691,0-1.284-0.131-1.778-0.392s-0.903-0.613-1.225-1.057
			c-0.322-0.443-0.562-0.959-0.721-1.547s-0.243-1.208-0.252-1.862c-0.009-0.849,0.077-1.612,0.259-2.289
			c0.182-0.677,0.488-1.258,0.917-1.743c0.308-0.354,0.681-0.627,1.12-0.819c0.438-0.191,0.984-0.287,1.638-0.287
			c0.476,0,0.905,0.063,1.288,0.189s0.714,0.299,0.994,0.518c0.28,0.22,0.506,0.481,0.679,0.784
			c0.172,0.303,0.287,0.632,0.343,0.987h-1.834c-0.075-0.298-0.222-0.543-0.441-0.735s-0.539-0.287-0.959-0.287
			c-0.7,0-1.22,0.245-1.561,0.735c-0.341,0.49-0.511,1.16-0.511,2.009h0.028c0.252-0.299,0.551-0.539,0.896-0.721
			c0.345-0.182,0.798-0.273,1.358-0.273c0.448,0,0.873,0.084,1.274,0.252s0.754,0.401,1.057,0.7s0.546,0.658,0.728,1.078
			c0.182,0.42,0.273,0.887,0.273,1.4c0,0.495-0.091,0.947-0.273,1.358s-0.434,0.766-0.756,1.064c-0.322,0.299-0.7,0.53-1.134,0.693
			C-690.727-282.862-691.195-282.78-691.699-282.78z M-691.77-284.278c0.261,0,0.502-0.046,0.721-0.14
			c0.219-0.093,0.411-0.221,0.574-0.385c0.164-0.163,0.292-0.357,0.385-0.581s0.14-0.466,0.14-0.728c0-0.271-0.047-0.522-0.14-0.756
			s-0.219-0.436-0.378-0.609s-0.348-0.308-0.567-0.406c-0.22-0.098-0.46-0.147-0.721-0.147c-0.588,0-1.045,0.177-1.372,0.532
			c-0.327,0.354-0.49,0.812-0.49,1.372c0,0.542,0.172,0.985,0.518,1.33C-692.754-284.451-692.311-284.278-691.77-284.278z"/>
	</g>
	<g>
		<path fill="#828282" d="M-860.23-274h2.03v8.316h4.704v1.694h-6.734V-274z"/>
		<path fill="#828282" d="M-848.428-263.766c-0.737,0-1.405-0.131-2.002-0.392c-0.598-0.261-1.106-0.623-1.526-1.085
			c-0.42-0.462-0.742-1.013-0.966-1.652c-0.224-0.639-0.336-1.333-0.336-2.079s0.112-1.44,0.336-2.079
			c0.224-0.639,0.546-1.192,0.966-1.659c0.42-0.466,0.928-0.831,1.526-1.092c0.597-0.261,1.265-0.392,2.002-0.392
			s1.402,0.131,1.995,0.392c0.592,0.261,1.099,0.625,1.519,1.092c0.42,0.467,0.742,1.02,0.966,1.659s0.336,1.333,0.336,2.079
			s-0.112,1.44-0.336,2.079s-0.546,1.19-0.966,1.652c-0.42,0.462-0.927,0.824-1.519,1.085
			C-847.026-263.897-847.691-263.766-848.428-263.766z M-848.414-265.432c0.457,0,0.856-0.091,1.197-0.273
			c0.341-0.182,0.625-0.432,0.854-0.749c0.229-0.317,0.399-0.693,0.511-1.127c0.112-0.434,0.168-0.898,0.168-1.393
			c0-0.504-0.056-0.971-0.168-1.4c-0.112-0.429-0.283-0.805-0.511-1.127c-0.229-0.322-0.513-0.574-0.854-0.756
			s-0.74-0.273-1.197-0.273c-0.458,0-0.859,0.091-1.204,0.273c-0.346,0.182-0.635,0.434-0.868,0.756
			c-0.233,0.322-0.408,0.698-0.525,1.127s-0.175,0.896-0.175,1.4c0,0.495,0.058,0.959,0.175,1.393
			c0.117,0.434,0.292,0.81,0.525,1.127s0.522,0.567,0.868,0.749C-849.273-265.523-848.872-265.432-848.414-265.432z"/>
		<path fill="#828282" d="M-835.24-265.334h-0.028c-0.345,0.579-0.751,0.982-1.218,1.211c-0.467,0.229-0.999,0.343-1.596,0.343
			c-0.756,0-1.426-0.128-2.009-0.385c-0.583-0.257-1.085-0.614-1.505-1.071c-0.42-0.466-0.742-1.015-0.966-1.645
			c-0.224-0.63-0.336-1.323-0.336-2.079c0-0.84,0.14-1.61,0.42-2.31c0.28-0.7,0.686-1.293,1.218-1.778
			c0.411-0.373,0.882-0.658,1.414-0.854c0.532-0.196,1.134-0.294,1.806-0.294c0.625,0,1.188,0.082,1.687,0.245
			c0.5,0.164,0.926,0.395,1.281,0.693c0.354,0.299,0.642,0.653,0.861,1.064c0.219,0.411,0.371,0.859,0.455,1.344h-1.988
			c-0.112-0.485-0.355-0.884-0.728-1.197c-0.374-0.312-0.882-0.469-1.526-0.469c-0.476,0-0.889,0.091-1.239,0.273
			s-0.644,0.434-0.882,0.756c-0.238,0.322-0.416,0.7-0.532,1.134c-0.117,0.434-0.175,0.898-0.175,1.393
			c0,0.514,0.065,0.987,0.196,1.421c0.13,0.434,0.317,0.807,0.56,1.12c0.243,0.313,0.537,0.558,0.882,0.735s0.733,0.266,1.162,0.266
			c0.392,0,0.747-0.065,1.064-0.196c0.317-0.13,0.588-0.303,0.812-0.518c0.224-0.214,0.396-0.457,0.518-0.728
			c0.121-0.271,0.182-0.546,0.182-0.826v-0.056h-2.408v-1.568h4.214v5.32h-1.526L-835.24-265.334z"/>
		<path fill="#828282" d="M-827.834-263.766c-0.737,0-1.405-0.131-2.002-0.392c-0.598-0.261-1.106-0.623-1.526-1.085
			c-0.42-0.462-0.742-1.013-0.966-1.652c-0.224-0.639-0.336-1.333-0.336-2.079s0.112-1.44,0.336-2.079
			c0.224-0.639,0.546-1.192,0.966-1.659c0.42-0.466,0.928-0.831,1.526-1.092c0.597-0.261,1.265-0.392,2.002-0.392
			s1.402,0.131,1.995,0.392c0.592,0.261,1.099,0.625,1.519,1.092c0.42,0.467,0.742,1.02,0.966,1.659s0.336,1.333,0.336,2.079
			s-0.112,1.44-0.336,2.079s-0.546,1.19-0.966,1.652c-0.42,0.462-0.927,0.824-1.519,1.085
			C-826.432-263.897-827.097-263.766-827.834-263.766z M-827.82-265.432c0.457,0,0.856-0.091,1.197-0.273
			c0.341-0.182,0.625-0.432,0.854-0.749c0.229-0.317,0.399-0.693,0.511-1.127c0.112-0.434,0.168-0.898,0.168-1.393
			c0-0.504-0.056-0.971-0.168-1.4c-0.112-0.429-0.283-0.805-0.511-1.127c-0.229-0.322-0.513-0.574-0.854-0.756
			s-0.74-0.273-1.197-0.273c-0.458,0-0.859,0.091-1.204,0.273c-0.346,0.182-0.635,0.434-0.868,0.756
			c-0.233,0.322-0.408,0.698-0.525,1.127s-0.175,0.896-0.175,1.4c0,0.495,0.058,0.959,0.175,1.393
			c0.117,0.434,0.292,0.81,0.525,1.127s0.522,0.567,0.868,0.749C-828.679-265.523-828.278-265.432-827.82-265.432z"/>
		<path fill="#828282" d="M-819.785-270.234h2.044v2.03h-2.044V-270.234z M-819.785-266.02h2.044v2.03h-2.044V-266.02z"/>
		<path fill="#171617" d="M-811.72-274h4.396c0.588,0,1.097,0.082,1.526,0.245c0.429,0.164,0.793,0.395,1.092,0.693
			c0.28,0.289,0.499,0.625,0.658,1.008s0.238,0.807,0.238,1.274c0,0.476-0.077,0.908-0.231,1.295
			c-0.154,0.388-0.374,0.719-0.658,0.994s-0.635,0.49-1.05,0.644c-0.416,0.154-0.885,0.231-1.407,0.231h-2.464v3.626h-2.1V-274z
			 M-809.62-269.268h2.1c0.532,0,0.936-0.135,1.211-0.406c0.275-0.271,0.413-0.634,0.413-1.092c0-0.476-0.14-0.84-0.42-1.092
			c-0.28-0.252-0.672-0.378-1.176-0.378h-2.128V-269.268z"/>
		<path fill="#171617" d="M-799.764-263.78c-0.56,0-1.069-0.098-1.526-0.294c-0.458-0.196-0.852-0.464-1.183-0.805
			c-0.332-0.34-0.588-0.742-0.77-1.204c-0.182-0.462-0.273-0.959-0.273-1.491s0.091-1.029,0.273-1.491
			c0.182-0.462,0.438-0.863,0.77-1.204c0.331-0.341,0.726-0.609,1.183-0.805c0.457-0.196,0.966-0.294,1.526-0.294
			s1.068,0.098,1.526,0.294c0.457,0.196,0.852,0.464,1.183,0.805c0.331,0.341,0.588,0.742,0.77,1.204
			c0.182,0.462,0.273,0.959,0.273,1.491s-0.091,1.029-0.273,1.491c-0.182,0.462-0.439,0.863-0.77,1.204
			c-0.332,0.341-0.726,0.609-1.183,0.805C-798.696-263.878-799.204-263.78-799.764-263.78z M-799.764-265.236
			c0.588,0,1.038-0.214,1.351-0.644c0.312-0.429,0.469-0.994,0.469-1.694s-0.156-1.267-0.469-1.701
			c-0.313-0.434-0.763-0.651-1.351-0.651s-1.039,0.217-1.351,0.651c-0.313,0.434-0.469,1.001-0.469,1.701s0.156,1.265,0.469,1.694
			C-800.803-265.451-800.352-265.236-799.764-265.236z"/>
		<path fill="#171617" d="M-795.9-271.172h1.89l0.868,3.332c0.037,0.149,0.077,0.304,0.119,0.462
			c0.042,0.159,0.077,0.304,0.105,0.434c0.037,0.159,0.07,0.308,0.098,0.448h0.028c0.028-0.149,0.061-0.303,0.098-0.462
			c0.028-0.131,0.058-0.275,0.091-0.434s0.072-0.312,0.119-0.462l0.896-3.318h1.624l0.938,3.318
			c0.037,0.159,0.074,0.317,0.112,0.476c0.037,0.159,0.075,0.304,0.112,0.434c0.038,0.159,0.075,0.308,0.112,0.448h0.028
			c0.028-0.14,0.061-0.29,0.098-0.448c0.056-0.28,0.13-0.579,0.224-0.896l0.91-3.332h1.848l-2.142,7.182h-1.736l-0.952-3.528
			c-0.047-0.14-0.089-0.285-0.126-0.434c-0.038-0.149-0.07-0.285-0.098-0.406c-0.037-0.14-0.07-0.275-0.098-0.406h-0.028
			c-0.037,0.131-0.075,0.266-0.112,0.406c-0.038,0.122-0.075,0.257-0.112,0.406c-0.038,0.149-0.075,0.294-0.112,0.434l-0.98,3.528
			h-1.722L-795.9-271.172z"/>
		<path fill="#171617" d="M-781.746-263.78c-0.598,0-1.127-0.098-1.589-0.294s-0.852-0.464-1.169-0.805
			c-0.317-0.34-0.558-0.744-0.721-1.211c-0.164-0.466-0.245-0.966-0.245-1.498c0-0.532,0.086-1.029,0.259-1.491
			s0.416-0.861,0.728-1.197s0.686-0.602,1.12-0.798s0.912-0.294,1.435-0.294c0.579,0,1.087,0.105,1.526,0.315
			c0.438,0.21,0.807,0.506,1.106,0.889s0.525,0.837,0.679,1.365c0.154,0.527,0.231,1.113,0.231,1.757h-5.208
			c0.075,0.56,0.264,0.999,0.567,1.316s0.726,0.476,1.267,0.476c0.373,0,0.672-0.08,0.896-0.238s0.387-0.373,0.49-0.644h1.876
			c-0.065,0.317-0.184,0.619-0.357,0.903s-0.396,0.534-0.672,0.749c-0.275,0.215-0.6,0.385-0.973,0.511
			C-780.874-263.843-781.289-263.78-781.746-263.78z M-781.9-269.898c-0.504,0-0.887,0.138-1.148,0.413
			c-0.261,0.275-0.434,0.651-0.518,1.127h3.192c-0.028-0.457-0.18-0.828-0.455-1.113
			C-781.104-269.756-781.462-269.898-781.9-269.898z"/>
		<path fill="#171617" d="M-775.67-270.024h0.042c0.214-0.411,0.457-0.718,0.728-0.924c0.271-0.205,0.616-0.308,1.036-0.308
			c0.196,0,0.345,0.019,0.448,0.056v1.666h-0.042c-0.625-0.065-1.139,0.07-1.54,0.406c-0.401,0.336-0.602,0.882-0.602,1.638v3.5
			h-1.904v-7.182h1.834V-270.024z"/>
		<path fill="#171617" d="M-772.437-274h2.03v3.92h3.934V-274h2.03v10.01h-2.03v-4.41h-3.934v4.41h-2.03V-274z"/>
		<path fill="#171617" d="M-759.654-263.78c-0.56,0-1.069-0.098-1.526-0.294c-0.458-0.196-0.852-0.464-1.183-0.805
			c-0.332-0.34-0.588-0.742-0.77-1.204c-0.182-0.462-0.273-0.959-0.273-1.491s0.091-1.029,0.273-1.491
			c0.182-0.462,0.438-0.863,0.77-1.204c0.331-0.341,0.726-0.609,1.183-0.805c0.457-0.196,0.966-0.294,1.526-0.294
			s1.068,0.098,1.526,0.294c0.457,0.196,0.852,0.464,1.183,0.805c0.331,0.341,0.588,0.742,0.77,1.204
			c0.182,0.462,0.273,0.959,0.273,1.491s-0.091,1.029-0.273,1.491c-0.182,0.462-0.439,0.863-0.77,1.204
			c-0.332,0.341-0.726,0.609-1.183,0.805C-758.586-263.878-759.094-263.78-759.654-263.78z M-759.654-265.236
			c0.588,0,1.038-0.214,1.351-0.644c0.312-0.429,0.469-0.994,0.469-1.694s-0.156-1.267-0.469-1.701
			c-0.313-0.434-0.763-0.651-1.351-0.651s-1.039,0.217-1.351,0.651c-0.313,0.434-0.469,1.001-0.469,1.701s0.156,1.265,0.469,1.694
			C-760.693-265.451-760.242-265.236-759.654-265.236z"/>
		<path fill="#171617" d="M-750.485-263.99v-0.84h-0.042c-0.243,0.327-0.521,0.581-0.833,0.763
			c-0.312,0.182-0.721,0.273-1.225,0.273c-0.803,0-1.418-0.233-1.848-0.7c-0.43-0.467-0.644-1.097-0.644-1.89v-4.788h1.89v4.466
			c0,0.42,0.095,0.742,0.287,0.966s0.492,0.336,0.903,0.336c0.448,0,0.8-0.151,1.057-0.455c0.257-0.303,0.385-0.693,0.385-1.169
			v-4.144h1.904v7.182H-750.485z"/>
		<path fill="#171617" d="M-744.507-263.78c-1.045,0-1.853-0.231-2.422-0.693s-0.882-1.076-0.938-1.841h1.764
			c0.065,0.42,0.235,0.724,0.511,0.91c0.275,0.187,0.628,0.28,1.057,0.28c0.42,0,0.744-0.075,0.973-0.224
			c0.229-0.149,0.343-0.35,0.343-0.602c0-0.168-0.054-0.303-0.161-0.406c-0.107-0.103-0.247-0.187-0.42-0.252
			c-0.173-0.065-0.373-0.119-0.602-0.161c-0.229-0.042-0.464-0.086-0.707-0.133c-0.327-0.065-0.642-0.14-0.945-0.224
			c-0.303-0.084-0.574-0.205-0.812-0.364c-0.238-0.159-0.429-0.364-0.574-0.616c-0.145-0.252-0.217-0.574-0.217-0.966
			s0.075-0.73,0.224-1.015c0.149-0.285,0.357-0.522,0.623-0.714c0.266-0.191,0.576-0.333,0.931-0.427
			c0.355-0.093,0.737-0.14,1.148-0.14c0.952,0,1.685,0.215,2.198,0.644s0.807,1.008,0.882,1.736h-1.722
			c-0.047-0.392-0.187-0.665-0.42-0.819c-0.233-0.154-0.556-0.231-0.966-0.231c-0.373,0-0.672,0.068-0.896,0.203
			c-0.224,0.136-0.336,0.334-0.336,0.595c0,0.159,0.056,0.282,0.168,0.371c0.112,0.089,0.259,0.163,0.441,0.224
			c0.182,0.061,0.392,0.109,0.63,0.147c0.238,0.037,0.483,0.084,0.735,0.14c0.298,0.065,0.6,0.14,0.903,0.224
			s0.576,0.208,0.819,0.371c0.242,0.164,0.438,0.378,0.588,0.644c0.149,0.266,0.224,0.609,0.224,1.029
			c0,0.364-0.075,0.688-0.224,0.973c-0.149,0.285-0.357,0.525-0.623,0.721c-0.266,0.196-0.583,0.348-0.952,0.455
			C-743.65-263.834-744.059-263.78-744.507-263.78z"/>
		<path fill="#171617" d="M-737.185-263.78c-0.598,0-1.127-0.098-1.589-0.294s-0.852-0.464-1.169-0.805
			c-0.317-0.34-0.558-0.744-0.721-1.211c-0.164-0.466-0.245-0.966-0.245-1.498c0-0.532,0.086-1.029,0.259-1.491
			s0.416-0.861,0.728-1.197s0.686-0.602,1.12-0.798s0.912-0.294,1.435-0.294c0.579,0,1.087,0.105,1.526,0.315
			c0.438,0.21,0.807,0.506,1.106,0.889s0.525,0.837,0.679,1.365c0.154,0.527,0.231,1.113,0.231,1.757h-5.208
			c0.075,0.56,0.264,0.999,0.567,1.316s0.726,0.476,1.267,0.476c0.373,0,0.672-0.08,0.896-0.238s0.387-0.373,0.49-0.644h1.876
			c-0.065,0.317-0.184,0.619-0.357,0.903s-0.396,0.534-0.672,0.749c-0.275,0.215-0.6,0.385-0.973,0.511
			C-736.312-263.843-736.728-263.78-737.185-263.78z M-737.339-269.898c-0.504,0-0.887,0.138-1.148,0.413
			c-0.261,0.275-0.434,0.651-0.518,1.127h3.192c-0.028-0.457-0.18-0.828-0.455-1.113
			C-736.543-269.756-736.901-269.898-737.339-269.898z"/>
	</g>
	<line fill="#D6D6D6" stroke="#FFFFFF" stroke-miterlimit="10" x1="217" y1="121" x2="33" y2="121"/>
	<line fill="#D6D6D6" stroke="#FFFFFF" stroke-miterlimit="10" x1="632" y1="121" x2="448" y2="121"/>
</g>
<g id="Design_Area">
	<g>
		<path fill="#257ABF" d="M-1683.9,452.377c-0.068-0.098-0.2-0.286-0.269-0.377c11.256,0.383,22.53,0.062,33.792,0.176
			c1.155-0.033,2.66,0.304,2.923,1.648c0.332,2.047,0.126,4.135,0.16,6.199c-0.017,13.962,0,27.93-0.006,41.896
			c27.643,0.023,55.292,0.018,82.935,0c-0.018-15.3,0.028-30.6-0.023-45.9c0.012-1.28-0.045-2.968,1.35-3.58
			c1.139-0.36,2.352-0.269,3.529-0.297c10.765,0.097,21.535-0.058,32.299,0.074c-2.579,0.143-5.159,0.297-7.744,0.389
			c-0.326,12.771-0.018,25.55-0.126,38.327c0.017,31.12-0.04,62.235,0.034,93.356c-8.345,0.017-16.684-0.023-25.029,0.028
			c-1.406-0.052-3.248,0.103-4.043-1.339c-0.48-2.254-0.207-4.575-0.252-6.852c-0.006-13.87,0.034-27.734-0.018-41.605
			c-0.349-10.74,0.154-21.488-0.269-32.224c-2.854-0.108-5.708-0.097-8.557,0.04c-0.245,10.73-0.04,21.466-0.086,32.195
			c-21.688,0-43.372-0.006-65.061,0c-0.063-10.735,0.154-21.477-0.097-32.213c-2.997-0.16-5.994-0.148-8.986,0.035
			c-0.08,10.724-0.206,21.459,0.097,32.184c0.103,15.586,0.029,31.172,0.035,46.758c0.234,1.562-0.938,3.037-2.568,2.945
			c-8.905,0.138-17.828,0.006-26.739,0.047c0.08-36.08,0.011-72.159,0.029-108.238c-0.086-7.854,0.194-15.713-0.132-23.56
			c-2.253,0.097-4.507,0.132-6.755,0.12C-1683.585,452.549-1683.792,452.434-1683.9,452.377z"/>
		<path fill="#257ABF" d="M-1710.136,467.116c8.219-0.183,16.45-0.012,24.674-0.08c0.08,34.083,0.063,68.167,0,102.244
			c-6.034,0-12.074,0-18.108,0c0.04-19.824,0-39.648,0.011-59.479c-0.063-14.099,0.137-28.198-0.097-42.297
			c-2.008-0.138-4.004-0.32-6.011-0.378L-1710.136,467.116z"/>
		<path fill="#257ABF" d="M-1526.221,467.036c8.145,0.063,16.295-0.097,24.439,0.068c-2.465,0.006-4.919,0.246-7.367,0.435
			c-0.246,33.912-0.034,67.824-0.104,101.736c-5.656,0.01-11.312,0.005-16.969,0.005c-0.189-5.92-0.092-11.834-0.109-17.754
			C-1526.279,523.363-1526.45,495.199-1526.221,467.036z"/>
		<path fill="#257ABF" d="M-1726.094,505.787c-0.029-1.419,0.229-3.467,1.95-3.725c4.244-0.348,8.511-0.022,12.766-0.125
			c-0.16,10.861-0.143,21.723,0,32.584c-4.095-0.074-8.208,0.184-12.297-0.08c-1.819-0.017-2.528-1.944-2.408-3.482
			C-1726.1,522.568-1726.077,514.178-1726.094,505.787z"/>
		<path fill="#257ABF" d="M-1500.289,501.938c4.268,0.103,8.551-0.229,12.807,0.137c1.728,0.27,1.928,2.305,1.91,3.713
			c-0.017,8.396,0.012,16.804-0.011,25.2c0.091,1.516-0.584,3.415-2.368,3.449c-4.102,0.274-8.225,0.005-12.338,0.091
			C-1500.129,523.666-1500.123,512.799-1500.289,501.938z"/>
		<g>
			<path fill="#07659C" d="M-1684.141,452.239l0.24,0.138c0.109,0.057,0.315,0.172,0.423,0.234c2.248,0.012,4.501-0.023,6.755-0.12
				c0.326,7.847,0.046,15.706,0.132,23.56c-0.018,36.079,0.051,72.158-0.029,108.238c-2.316-0.029-4.65,0.177-6.955-0.144
				c-1.098-0.148-1.91-1.224-1.853-2.311c-0.166-4.181,0-8.368-0.035-12.555c0.063-34.077,0.08-68.161,0-102.244
				c0.023-4.056-0.108-8.116,0.018-12.165C-1685.507,453.807-1684.695,453.04-1684.141,452.239z"/>
			<path fill="#07659C" d="M-1534.955,452.605c2.585-0.092,5.165-0.246,7.744-0.389c0.452,1.029,1.064,2.047,1.023,3.22
				c0.041,3.866,0,7.733-0.033,11.6c-0.229,28.163-0.059,56.327-0.109,84.49c0.018,5.92-0.08,11.834,0.109,17.754
				c0.006,4.187,0.137,8.386-0.018,12.571c0.057,1.093-0.75,2.146-1.848,2.294c-2.305,0.326-4.645,0.114-6.961,0.144
				c-0.074-31.121-0.018-62.236-0.034-93.356C-1534.973,478.155-1535.281,465.377-1534.955,452.605z"/>
			<path fill="#07659C" d="M-1711.366,470.313c-0.052-1.286,0.292-2.769,1.699-3.187c2.007,0.058,4.003,0.24,6.011,0.378
				c0.234,14.099,0.034,28.198,0.097,42.297c-0.011,19.83,0.029,39.654-0.011,59.479c-2.042-0.034-4.124,0.2-6.143-0.212
				c-1.43-0.337-1.67-1.996-1.653-3.226c-0.012-10.438,0.034-20.882-0.012-31.321c-0.143-10.861-0.16-21.723,0-32.584
				C-1711.332,491.396-1711.377,480.854-1711.366,470.313z"/>
			<path fill="#07659C" d="M-1509.148,467.539c2.448-0.188,4.902-0.429,7.367-0.435c1.195,0.618,1.533,1.956,1.48,3.203
				c0.012,10.542-0.033,21.089,0.012,31.63c0.166,10.861,0.16,21.729,0,32.59c-0.045,10.461,0,20.923-0.012,31.379
				c0.023,1.212-0.251,2.813-1.635,3.162c-2.408,0.446-4.885,0.154-7.316,0.207
				C-1509.183,535.363-1509.395,501.451-1509.148,467.539z"/>
		</g>
		<g>
			<path fill="#07659C" d="M-1647.443,502.355c2.992-0.184,5.989-0.195,8.986-0.035c0.251,10.736,0.034,21.478,0.097,32.213
				c-2.997,0-5.994-0.012-8.986,0.006C-1647.649,523.814-1647.523,513.079-1647.443,502.355z"/>
			<path fill="#07659C" d="M-1573.214,502.338c2.849-0.137,5.702-0.148,8.557-0.04c0.423,10.735-0.08,21.483,0.269,32.224
				c-2.975,0.012-5.942,0.012-8.911,0.012C-1573.254,523.804-1573.459,513.068-1573.214,502.338z"/>
		</g>
	</g>
	<g>
		<path fill="#257ABF" d="M-1352.917,501.05c-0.032-0.048-0.095-0.138-0.128-0.181c5.387,0.184,10.782,0.029,16.172,0.084
			c0.553-0.017,1.271,0.146,1.398,0.789c0.158,0.979,0.061,1.979,0.076,2.967c-0.008,6.682,0,13.367-0.003,20.051
			c13.229,0.012,26.462,0.008,39.692,0c-0.01-7.322,0.012-14.645-0.013-21.968c0.006-0.611-0.021-1.419,0.646-1.713
			c0.546-0.172,1.126-0.128,1.689-0.143c5.152,0.048,10.307-0.026,15.458,0.036c-1.234,0.068-2.47,0.143-3.707,0.187
			c-0.155,6.112-0.008,12.227-0.06,18.343c0.008,14.893-0.02,29.784,0.016,44.678c-3.993,0.007-7.983-0.012-11.978,0.014
			c-0.674-0.025-1.555,0.049-1.936-0.641c-0.229-1.079-0.099-2.189-0.121-3.279c-0.002-6.638,0.017-13.273-0.008-19.911
			c-0.166-5.141,0.074-10.284-0.128-15.421c-1.367-0.053-2.732-0.048-4.096,0.019c-0.117,5.136-0.019,10.272-0.041,15.407
			c-10.379,0-20.757-0.002-31.136,0c-0.03-5.137,0.073-10.278-0.047-15.416c-1.435-0.076-2.868-0.07-4.301,0.017
			c-0.038,5.133-0.098,10.27,0.047,15.402c0.05,7.459,0.015,14.919,0.017,22.378c0.112,0.747-0.449,1.453-1.229,1.409
			c-4.261,0.065-8.532,0.003-12.796,0.022c0.038-17.268,0.005-34.533,0.014-51.801c-0.042-3.758,0.093-7.52-0.063-11.275
			c-1.078,0.047-2.156,0.064-3.233,0.059C-1352.765,501.132-1352.864,501.076-1352.917,501.05z"/>
		<path fill="#257ABF" d="M-1365.473,508.104c3.935-0.087,7.873-0.005,11.81-0.038c0.038,16.311,0.031,32.622,0,48.932
			c-2.889,0-5.778,0-8.666,0c0.02-9.488,0-18.976,0.006-28.466c-0.03-6.746,0.065-13.495-0.047-20.242
			c-0.962-0.065-1.916-0.152-2.877-0.181L-1365.473,508.104z"/>
		<path fill="#257ABF" d="M-1277.455,508.065c3.897,0.03,7.798-0.047,11.695,0.033c-1.179,0.002-2.354,0.116-3.525,0.207
			c-0.117,16.229-0.016,32.459-0.049,48.688c-2.707,0.005-5.414,0.003-8.121,0.003c-0.091-2.834-0.044-5.664-0.052-8.497
			C-1277.482,535.022-1277.564,521.544-1277.455,508.065z"/>
		<path fill="#257ABF" d="M-1373.109,526.61c-0.014-0.679,0.109-1.659,0.934-1.782c2.03-0.167,4.072-0.011,6.109-0.061
			c-0.077,5.199-0.069,10.396,0,15.595c-1.959-0.036-3.928,0.088-5.886-0.038c-0.87-0.008-1.209-0.931-1.152-1.667
			C-1373.112,534.642-1373.101,530.627-1373.109,526.61z"/>
		<path fill="#257ABF" d="M-1265.044,524.768c2.042,0.05,4.093-0.109,6.129,0.066c0.826,0.129,0.923,1.103,0.915,1.776
			c-0.009,4.019,0.005,8.042-0.006,12.061c0.044,0.725-0.279,1.634-1.134,1.65c-1.963,0.131-3.937,0.003-5.904,0.044
			C-1264.967,535.167-1264.964,529.967-1265.044,524.768z"/>
		<g>
			<path fill="#07659C" d="M-1353.032,500.984l0.115,0.065c0.053,0.026,0.151,0.082,0.202,0.112
				c1.077,0.006,2.155-0.012,3.233-0.059c0.156,3.756,0.021,7.518,0.063,11.275c-0.009,17.268,0.024,34.533-0.014,51.801
				c-1.109-0.015-2.226,0.084-3.329-0.068c-0.525-0.072-0.914-0.587-0.887-1.106c-0.08-2.001,0-4.005-0.017-6.008
				c0.031-16.31,0.038-32.621,0-48.932c0.011-1.941-0.052-3.885,0.009-5.822C-1353.686,501.734-1353.296,501.367-1353.032,500.984z"
				/>
			<path fill="#07659C" d="M-1281.635,501.159c1.237-0.044,2.473-0.118,3.707-0.187c0.217,0.493,0.51,0.98,0.489,1.541
				c0.021,1.85,0,3.701-0.016,5.552c-0.109,13.479-0.027,26.957-0.052,40.435c0.008,2.833-0.039,5.663,0.052,8.497
				c0.003,2.003,0.065,4.013-0.008,6.017c0.026,0.522-0.359,1.025-0.885,1.098c-1.104,0.155-2.223,0.054-3.332,0.068
				c-0.035-14.894-0.008-29.785-0.016-44.678C-1281.643,513.386-1281.791,507.271-1281.635,501.159z"/>
			<path fill="#07659C" d="M-1366.061,509.634c-0.024-0.616,0.14-1.325,0.813-1.525c0.961,0.028,1.915,0.115,2.877,0.181
				c0.112,6.747,0.017,13.496,0.047,20.242c-0.006,9.49,0.014,18.978-0.006,28.466c-0.977-0.017-1.974,0.095-2.94-0.102
				c-0.685-0.161-0.799-0.956-0.791-1.544c-0.005-4.996,0.017-9.994-0.005-14.989c-0.069-5.198-0.077-10.396,0-15.595
				C-1366.044,519.724-1366.066,514.679-1366.061,509.634z"/>
			<path fill="#07659C" d="M-1269.285,508.306c1.172-0.091,2.347-0.205,3.525-0.207c0.572,0.295,0.734,0.936,0.71,1.532
				c0.005,5.045-0.017,10.093,0.005,15.137c0.08,5.199,0.077,10.399,0,15.598c-0.021,5.006,0,10.014-0.005,15.017
				c0.011,0.579-0.121,1.347-0.783,1.514c-1.152,0.213-2.338,0.073-3.501,0.099C-1269.3,540.765-1269.402,524.535-1269.285,508.306z
				"/>
		</g>
		<g>
			<path fill="#07659C" d="M-1335.469,524.968c1.433-0.087,2.866-0.093,4.301-0.017c0.12,5.138,0.017,10.279,0.047,15.416
				c-1.435,0-2.869-0.005-4.301,0.003C-1335.567,535.237-1335.507,530.101-1335.469,524.968z"/>
			<path fill="#07659C" d="M-1299.945,524.96c1.363-0.066,2.729-0.071,4.096-0.019c0.202,5.137-0.038,10.28,0.128,15.421
				c-1.423,0.005-2.844,0.005-4.265,0.005C-1299.963,535.232-1300.062,530.096-1299.945,524.96z"/>
		</g>
	</g>
	<g>
		<g>
			<path fill="#3F4246" stroke="#3F4246" stroke-width="2" stroke-miterlimit="10" d="M-1824.881,42.646v8.127
				c0,10.002-6.479,15.451-19.679,15.451h-6.24v23.488H-1864V27.195h19.439C-1831.361,27.195-1824.881,32.645-1824.881,42.646z
				 M-1850.8,36.127v21.166h6.24c4.2,0,6.479-1.43,6.479-5.895v-9.377c0-4.465-2.28-5.895-6.479-5.895H-1850.8z"/>
			<path fill="#3F4246" stroke="#3F4246" stroke-width="2" stroke-miterlimit="10" d="M-1813.241,42.199
				c0-10.002,7.08-15.719,20.039-15.719c12.96,0,20.04,5.717,20.04,15.719v32.51c0,10.004-7.08,15.721-20.04,15.721
				c-12.959,0-20.039-5.717-20.039-15.721V42.199z M-1800.041,75.334c0,4.467,2.64,6.164,6.839,6.164c4.2,0,6.84-1.697,6.84-6.164
				v-33.76c0-4.465-2.64-6.162-6.84-6.162c-4.2,0-6.839,1.697-6.839,6.162V75.334z"/>
			<path fill="#3F4246" stroke="#3F4246" stroke-width="2" stroke-miterlimit="10" d="M-1729.362,56.4l-4.8,33.312h-18.119
				l-9.36-62.518h12.84l7.08,49.301l6.36-49.301h12.719l6.6,49.658l6.84-49.658h11.52l-9.36,62.518h-17.519L-1729.362,56.4z"/>
			<path fill="#3F4246" stroke="#3F4246" stroke-width="2" stroke-miterlimit="10" d="M-1671.883,53.543h18.12v8.932h-18.12v18.309
				h22.799v8.93h-35.998V27.195h35.998v8.932h-22.799V53.543z"/>
			<path fill="#3F4246" stroke="#3F4246" stroke-width="2" stroke-miterlimit="10" d="M-1607.324,89.713
				c-0.721-1.607-1.199-2.588-1.199-7.68v-9.824c0-5.805-2.641-7.949-8.641-7.949h-4.56v25.453h-13.199V27.195h19.919
				c13.68,0,19.559,4.734,19.559,14.379v4.912c0,6.432-2.76,10.629-8.639,12.684c6.6,2.055,8.76,6.787,8.76,13.307v9.646
				c0,3.037,0.119,5.27,1.439,7.59H-1607.324z M-1621.724,36.127V55.33h5.16c4.919,0,7.919-1.609,7.919-6.611v-6.16
				c0-4.467-2.039-6.432-6.719-6.432H-1621.724z"/>
			<path display="none" fill="#3F4246" stroke="#3F4246" stroke-width="2" stroke-miterlimit="10" d="M-1544.01,89.713h-13.199
				V27.195h13.199v26.793h15V27.195h13.439v62.518h-13.439V62.92h-15V89.713z"/>
			<path fill="#3F4246" stroke="#3F4246" stroke-width="2" stroke-miterlimit="10" d="M-1460.885,42.199
				c0-10.002,7.08-15.719,20.039-15.719c12.959,0,20.039,5.717,20.039,15.719v32.51c0,10.004-7.08,15.721-20.039,15.721
				c-12.958,0-20.039-5.717-20.039-15.721V42.199z M-1447.686,75.334c0,4.467,2.641,6.164,6.839,6.164
				c4.199,0,6.84-1.697,6.84-6.164v-33.76c0-4.465-2.641-6.162-6.84-6.162c-4.199,0-6.839,1.697-6.839,6.162V75.334z"/>
			<path fill="#3F4246" stroke="#3F4246" stroke-width="2" stroke-miterlimit="10" d="M-1393.686,27.195v48.229
				c0,4.467,2.639,6.074,6.84,6.074c4.199,0,6.84-1.607,6.84-6.074V27.195h12.479v47.604c0,10.004-6.719,15.719-19.68,15.719
				c-12.959,0-19.678-5.715-19.678-15.719V27.195H-1393.686z"/>
			<path fill="#3F4246" stroke="#3F4246" stroke-width="2" stroke-miterlimit="10" d="M-1334.766,26.48
				c12.837,0,19.437,5.717,19.437,15.719v1.967h-12.478v-2.592c0-4.465-2.4-6.162-6.6-6.162s-6.6,1.697-6.6,6.162
				c0,12.861,25.798,15.273,25.798,33.135c0,10.004-6.721,15.721-19.679,15.721c-12.959,0-19.68-5.717-19.68-15.721v-3.84h12.48
				v4.465c0,4.467,2.639,6.074,6.84,6.074c4.199,0,6.84-1.607,6.84-6.074c0-12.859-25.799-15.271-25.799-33.135
				C-1354.205,32.197-1347.605,26.48-1334.766,26.48z"/>
			<path fill="#3F4246" stroke="#3F4246" stroke-width="2" stroke-miterlimit="10" d="M-1288.448,53.543h18.119v8.932h-18.119
				v18.309h22.798v8.93h-35.998V27.195h35.998v8.932h-22.798V53.543z"/>
		</g>
		<g>
			<rect x="-1545.885" y="52" fill="#257ABF" width="43" height="14"/>
			<g>
				<rect x="-1510.885" y="26" fill="#257ABF" width="18" height="65"/>
				<rect x="-1492" y="34.191" fill="#257ABF" width="15" height="48.617"/>
				<rect x="-1477" y="52" fill="#257ABF" width="9" height="14"/>
				<rect x="-1494" y="26" fill="#07659C" width="4" height="65"/>
				<rect x="-1479" y="34" fill="#07659C" width="4" height="49"/>
				<rect x="-1515" y="52" fill="#07659C" width="4" height="14"/>
			</g>
			<g>
				<rect x="-1562.115" y="26" fill="#257ABF" width="18" height="65"/>
				<rect x="-1578" y="34.191" fill="#257ABF" width="15" height="48.617"/>
				<rect x="-1587" y="52" fill="#257ABF" width="9" height="14"/>
				<rect x="-1565" y="26" fill="#07659C" width="4" height="65"/>
				<rect x="-1580" y="34" fill="#07659C" width="4" height="49"/>
				<rect x="-1544" y="52" fill="#07659C" width="4" height="14"/>
			</g>
		</g>
	</g>
</g>
<g id="logo_Drk">
	<g>
		<g>
			<path fill="#EDECEC" stroke="#EDECEC" stroke-width="2" stroke-miterlimit="10" d="M-759.882,211.646v8.127
				c0,10.002-6.479,15.451-19.679,15.451h-6.24v23.488H-799v-62.518h19.439C-766.361,196.195-759.882,201.645-759.882,211.646z
				 M-785.801,205.127v21.166h6.24c4.2,0,6.479-1.43,6.479-5.895v-9.377c0-4.465-2.28-5.895-6.479-5.895H-785.801z"/>
			<path fill="#EDECEC" stroke="#EDECEC" stroke-width="2" stroke-miterlimit="10" d="M-748.241,211.199
				c0-10.002,7.08-15.719,20.039-15.719c12.96,0,20.04,5.717,20.04,15.719v32.51c0,10.004-7.08,15.721-20.04,15.721
				c-12.959,0-20.039-5.717-20.039-15.721V211.199z M-735.042,244.334c0,4.467,2.64,6.164,6.839,6.164c4.2,0,6.84-1.697,6.84-6.164
				v-33.76c0-4.465-2.64-6.162-6.84-6.162c-4.2,0-6.839,1.697-6.839,6.162V244.334z"/>
			<path fill="#EDECEC" stroke="#EDECEC" stroke-width="2" stroke-miterlimit="10" d="M-664.363,225.4l-4.8,33.312h-18.119
				l-9.36-62.518h12.84l7.08,49.301l6.36-49.301h12.719l6.6,49.658l6.84-49.658h11.52l-9.36,62.518h-17.519L-664.363,225.4z"/>
			<path fill="#EDECEC" stroke="#EDECEC" stroke-width="2" stroke-miterlimit="10" d="M-606.884,222.543h18.12v8.932h-18.12v18.309
				h22.799v8.93h-35.998v-62.518h35.998v8.932h-22.799V222.543z"/>
			<path fill="#EDECEC" stroke="#EDECEC" stroke-width="2" stroke-miterlimit="10" d="M-542.325,258.713
				c-0.721-1.607-1.199-2.588-1.199-7.68v-9.824c0-5.805-2.641-7.949-8.641-7.949h-4.56v25.453h-13.199v-62.518h19.919
				c13.68,0,19.559,4.734,19.559,14.379v4.912c0,6.432-2.76,10.629-8.639,12.684c6.6,2.055,8.76,6.787,8.76,13.307v9.646
				c0,3.037,0.119,5.27,1.439,7.59H-542.325z M-556.725,205.127v19.203h5.16c4.919,0,7.919-1.609,7.919-6.611v-6.16
				c0-4.467-2.039-6.432-6.719-6.432H-556.725z"/>
			<path display="none" fill="#EDECEC" stroke="#EDECEC" stroke-width="2" stroke-miterlimit="10" d="M-479.01,258.713h-13.199
				v-62.518h13.199v26.793h15v-26.793h13.439v62.518h-13.439V231.92h-15V258.713z"/>
			<path fill="#EDECEC" stroke="#EDECEC" stroke-width="2" stroke-miterlimit="10" d="M-395.885,211.199
				c0-10.002,7.08-15.719,20.039-15.719s20.039,5.717,20.039,15.719v32.51c0,10.004-7.08,15.721-20.039,15.721
				s-20.039-5.717-20.039-15.721V211.199z M-382.686,244.334c0,4.467,2.641,6.164,6.84,6.164s6.84-1.697,6.84-6.164v-33.76
				c0-4.465-2.641-6.162-6.84-6.162s-6.84,1.697-6.84,6.162V244.334z"/>
			<path fill="#EDECEC" stroke="#EDECEC" stroke-width="2" stroke-miterlimit="10" d="M-328.686,196.195v48.229
				c0,4.467,2.639,6.074,6.84,6.074c4.199,0,6.84-1.607,6.84-6.074v-48.229h12.479v47.604c0,10.004-6.719,15.719-19.68,15.719
				c-12.959,0-19.678-5.715-19.678-15.719v-47.604H-328.686z"/>
			<path fill="#EDECEC" stroke="#EDECEC" stroke-width="2" stroke-miterlimit="10" d="M-269.766,195.48
				c12.838,0,19.438,5.717,19.438,15.719v1.967h-12.479v-2.592c0-4.465-2.4-6.162-6.6-6.162s-6.6,1.697-6.6,6.162
				c0,12.861,25.799,15.273,25.799,33.135c0,10.004-6.721,15.721-19.68,15.721s-19.68-5.717-19.68-15.721v-3.84h12.48v4.465
				c0,4.467,2.639,6.074,6.84,6.074c4.199,0,6.84-1.607,6.84-6.074c0-12.859-25.799-15.271-25.799-33.135
				C-289.205,201.197-282.605,195.48-269.766,195.48z"/>
			<path fill="#EDECEC" stroke="#EDECEC" stroke-width="2" stroke-miterlimit="10" d="M-223.447,222.543h18.117v8.932h-18.117
				v18.309h22.797v8.93h-35.996v-62.518h35.996v8.932h-22.797V222.543z"/>
		</g>
		<g>
			<rect x="-480.885" y="221" fill="#257ABF" width="43" height="14"/>
			<g>
				<rect x="-445.885" y="195" fill="#257ABF" width="18" height="65"/>
				<rect x="-427" y="203.191" fill="#257ABF" width="15" height="48.617"/>
				<rect x="-412" y="221" fill="#257ABF" width="9" height="14"/>
				<rect x="-429" y="195" fill="#07659C" width="4" height="65"/>
				<rect x="-414" y="203" fill="#07659C" width="4" height="49"/>
				<rect x="-450" y="221" fill="#07659C" width="4" height="14"/>
			</g>
			<g>
				<rect x="-497.116" y="195" fill="#257ABF" width="18" height="65"/>
				<rect x="-513" y="203.191" fill="#257ABF" width="15" height="48.617"/>
				<rect x="-522" y="221" fill="#257ABF" width="9" height="14"/>
				<rect x="-500" y="195" fill="#07659C" width="4" height="65"/>
				<rect x="-515" y="203" fill="#07659C" width="4" height="49"/>
				<rect x="-479" y="221" fill="#07659C" width="4" height="14"/>
			</g>
		</g>
	</g>
	<g>
		<path fill="#D6D6D6" d="M237.181,117.451c0,1.844-0.576,3.254-1.729,4.23s-2.791,1.465-4.916,1.465h-1.559v6.094h-3.633v-17.133
			h5.473c2.078,0,3.658,0.447,4.74,1.342S237.181,115.678,237.181,117.451z M228.978,120.17h1.195c1.117,0,1.953-0.221,2.508-0.662
			s0.832-1.084,0.832-1.928c0-0.852-0.232-1.48-0.697-1.887s-1.193-0.609-2.186-0.609h-1.652V120.17z"/>
		<path fill="#D6D6D6" d="M257.166,120.65c0,2.836-0.703,5.016-2.109,6.539s-3.422,2.285-6.047,2.285s-4.641-0.762-6.047-2.285
			s-2.109-3.711-2.109-6.562s0.705-5.029,2.115-6.533s3.432-2.256,6.064-2.256s4.646,0.758,6.041,2.273
			S257.166,117.807,257.166,120.65z M244.662,120.65c0,1.914,0.363,3.355,1.09,4.324s1.812,1.453,3.258,1.453
			c2.898,0,4.348-1.926,4.348-5.777c0-3.859-1.441-5.789-4.324-5.789c-1.445,0-2.535,0.486-3.27,1.459
			S244.662,118.736,244.662,120.65z"/>
		<path fill="#D6D6D6" d="M265.55,122.666v6.574h-3.633v-17.133h4.992c2.328,0,4.051,0.424,5.168,1.271s1.676,2.135,1.676,3.861
			c0,1.008-0.277,1.904-0.832,2.689s-1.34,1.4-2.355,1.846c2.578,3.852,4.258,6.34,5.039,7.465h-4.031l-4.09-6.574H265.55z
			 M265.55,119.713h1.172c1.148,0,1.996-0.191,2.543-0.574s0.82-0.984,0.82-1.805c0-0.812-0.279-1.391-0.838-1.734
			s-1.424-0.516-2.596-0.516h-1.102V119.713z"/>
		<path fill="#D6D6D6" d="M285.569,129.24h-3.633v-14.109h-4.652v-3.023h12.938v3.023h-4.652V129.24z"/>
		<path fill="#D6D6D6" d="M304.547,129.24l-1.242-4.078h-6.246l-1.242,4.078h-3.914l6.047-17.203h4.441l6.07,17.203H304.547z
			 M302.438,122.115c-1.148-3.695-1.795-5.785-1.939-6.27s-0.248-0.867-0.311-1.148c-0.258,1-0.996,3.473-2.215,7.418H302.438z"/>
		<path fill="#D6D6D6" d="M315.45,122.666v6.574h-3.633v-17.133h4.992c2.328,0,4.051,0.424,5.168,1.271s1.676,2.135,1.676,3.861
			c0,1.008-0.277,1.904-0.832,2.689s-1.34,1.4-2.355,1.846c2.578,3.852,4.258,6.34,5.039,7.465h-4.031l-4.09-6.574H315.45z
			 M315.45,119.713h1.172c1.148,0,1.996-0.191,2.543-0.574s0.82-0.984,0.82-1.805c0-0.812-0.279-1.391-0.838-1.734
			s-1.424-0.516-2.596-0.516h-1.102V119.713z"/>
		<path fill="#D6D6D6" d="M328.861,129.24v-17.133h3.633v14.133h6.949v3H328.861z"/>
		<path fill="#D6D6D6" d="M343.62,129.24v-17.133h3.633v17.133H343.62z"/>
		<path fill="#D6D6D6" d="M367.964,129.24h-4.617l-7.453-12.961h-0.105c0.148,2.289,0.223,3.922,0.223,4.898v8.062h-3.246v-17.133
			h4.582l7.441,12.832h0.082c-0.117-2.227-0.176-3.801-0.176-4.723v-8.109h3.27V129.24z"/>
		<path fill="#D6D6D6" d="M379.98,119.619h6.797v8.883c-1.102,0.359-2.139,0.611-3.111,0.756s-1.967,0.217-2.982,0.217
			c-2.586,0-4.561-0.76-5.924-2.279s-2.045-3.701-2.045-6.545c0-2.766,0.791-4.922,2.373-6.469s3.775-2.32,6.58-2.32
			c1.758,0,3.453,0.352,5.086,1.055l-1.207,2.906c-1.25-0.625-2.551-0.938-3.902-0.938c-1.57,0-2.828,0.527-3.773,1.582
			s-1.418,2.473-1.418,4.254c0,1.859,0.381,3.279,1.143,4.26s1.869,1.471,3.322,1.471c0.758,0,1.527-0.078,2.309-0.234v-3.574
			h-3.246V119.619z"/>
		<path fill="#D6D6D6" d="M398.665,129.24h-3.633v-14.109h-4.652v-3.023h12.938v3.023h-4.652V129.24z"/>
		<path fill="#D6D6D6" d="M422.705,120.65c0,2.836-0.703,5.016-2.109,6.539s-3.422,2.285-6.047,2.285s-4.641-0.762-6.047-2.285
			s-2.109-3.711-2.109-6.562s0.705-5.029,2.115-6.533s3.432-2.256,6.064-2.256s4.646,0.758,6.041,2.273
			S422.705,117.807,422.705,120.65z M410.201,120.65c0,1.914,0.363,3.355,1.09,4.324s1.812,1.453,3.258,1.453
			c2.898,0,4.348-1.926,4.348-5.777c0-3.859-1.441-5.789-4.324-5.789c-1.445,0-2.535,0.486-3.27,1.459
			S410.201,118.736,410.201,120.65z"/>
		<path fill="#D6D6D6" d="M442.655,129.24h-4.617l-7.453-12.961h-0.105c0.148,2.289,0.223,3.922,0.223,4.898v8.062h-3.246v-17.133
			h4.582l7.441,12.832h0.082c-0.117-2.227-0.176-3.801-0.176-4.723v-8.109h3.27V129.24z"/>
	</g>
</g>
<g id="Logo_Lght">
	<g>
		<g>
			<path fill="#3F4246" stroke="#3F4246" stroke-width="2" stroke-miterlimit="10" d="M-759.231-124.354v8.127
				c0,10.002-6.479,15.451-19.679,15.451h-6.24v23.488h-13.199v-62.518h19.439C-765.711-139.805-759.231-134.355-759.231-124.354z
				 M-785.15-130.873v21.166h6.24c4.2,0,6.479-1.43,6.479-5.895v-9.377c0-4.465-2.28-5.895-6.479-5.895H-785.15z"/>
			<path fill="#3F4246" stroke="#3F4246" stroke-width="2" stroke-miterlimit="10" d="M-747.591-124.801
				c0-10.002,7.08-15.719,20.039-15.719c12.96,0,20.04,5.717,20.04,15.719v32.51c0,10.004-7.08,15.721-20.04,15.721
				c-12.959,0-20.039-5.717-20.039-15.721V-124.801z M-734.391-91.666c0,4.467,2.64,6.164,6.839,6.164c4.2,0,6.84-1.697,6.84-6.164
				v-33.76c0-4.465-2.64-6.162-6.84-6.162c-4.2,0-6.839,1.697-6.839,6.162V-91.666z"/>
			<path fill="#3F4246" stroke="#3F4246" stroke-width="2" stroke-miterlimit="10" d="M-663.712-110.6l-4.8,33.312h-18.119
				l-9.36-62.518h12.84l7.08,49.301l6.36-49.301h12.719l6.6,49.658l6.84-49.658h11.52l-9.36,62.518h-17.519L-663.712-110.6z"/>
			<path fill="#3F4246" stroke="#3F4246" stroke-width="2" stroke-miterlimit="10" d="M-606.233-113.457h18.12v8.932h-18.12v18.309
				h22.799v8.93h-35.998v-62.518h35.998v8.932h-22.799V-113.457z"/>
			<path fill="#3F4246" stroke="#3F4246" stroke-width="2" stroke-miterlimit="10" d="M-541.674-77.287
				c-0.721-1.607-1.199-2.588-1.199-7.68v-9.824c0-5.805-2.641-7.949-8.641-7.949h-4.56v25.453h-13.199v-62.518h19.919
				c13.68,0,19.559,4.734,19.559,14.379v4.912c0,6.432-2.76,10.629-8.639,12.684c6.6,2.055,8.76,6.787,8.76,13.307v9.646
				c0,3.037,0.119,5.27,1.439,7.59H-541.674z M-556.074-130.873v19.203h5.16c4.919,0,7.919-1.609,7.919-6.611v-6.16
				c0-4.467-2.039-6.432-6.719-6.432H-556.074z"/>
			<path display="none" fill="#3F4246" stroke="#3F4246" stroke-width="2" stroke-miterlimit="10" d="M-478.36-77.287h-13.199
				v-62.518h13.199v26.793h15v-26.793h13.439v62.518h-13.439v-26.793h-15V-77.287z"/>
			<path fill="#3F4246" stroke="#3F4246" stroke-width="2" stroke-miterlimit="10" d="M-395.234-124.801
				c0-10.002,7.08-15.719,20.039-15.719s20.039,5.717,20.039,15.719v32.51c0,10.004-7.08,15.721-20.039,15.721
				s-20.039-5.717-20.039-15.721V-124.801z M-382.035-91.666c0,4.467,2.641,6.164,6.84,6.164s6.84-1.697,6.84-6.164v-33.76
				c0-4.465-2.641-6.162-6.84-6.162s-6.84,1.697-6.84,6.162V-91.666z"/>
			<path fill="#3F4246" stroke="#3F4246" stroke-width="2" stroke-miterlimit="10" d="M-328.035-139.805v48.229
				c0,4.467,2.639,6.074,6.84,6.074c4.199,0,6.84-1.607,6.84-6.074v-48.229h12.479v47.604c0,10.004-6.719,15.719-19.68,15.719
				c-12.959,0-19.678-5.715-19.678-15.719v-47.604H-328.035z"/>
			<path fill="#3F4246" stroke="#3F4246" stroke-width="2" stroke-miterlimit="10" d="M-269.115-140.52
				c12.838,0,19.438,5.717,19.438,15.719v1.967h-12.479v-2.592c0-4.465-2.4-6.162-6.6-6.162s-6.6,1.697-6.6,6.162
				c0,12.861,25.799,15.273,25.799,33.135c0,10.004-6.721,15.721-19.68,15.721s-19.68-5.717-19.68-15.721v-3.84h12.48v4.465
				c0,4.467,2.639,6.074,6.84,6.074c4.199,0,6.84-1.607,6.84-6.074c0-12.859-25.799-15.271-25.799-33.135
				C-288.555-134.803-281.955-140.52-269.115-140.52z"/>
			<path fill="#3F4246" stroke="#3F4246" stroke-width="2" stroke-miterlimit="10" d="M-222.797-113.457h18.117v8.932h-18.117
				v18.309H-200v8.93h-35.996v-62.518H-200v8.932h-22.797V-113.457z"/>
		</g>
		<g>
			<rect x="-480.235" y="-115" fill="#257ABF" width="43" height="14"/>
			<g>
				<rect x="-445.235" y="-141" fill="#257ABF" width="18" height="65"/>
				<rect x="-426.35" y="-132.809" fill="#257ABF" width="15" height="48.617"/>
				<rect x="-411.35" y="-115" fill="#257ABF" width="9" height="14"/>
				<rect x="-428.35" y="-141" fill="#07659C" width="4" height="65"/>
				<rect x="-413.35" y="-133" fill="#07659C" width="4" height="49"/>
				<rect x="-449.35" y="-115" fill="#07659C" width="4" height="14"/>
			</g>
			<g>
				<rect x="-496.465" y="-141" fill="#257ABF" width="18" height="65"/>
				<rect x="-512.35" y="-132.809" fill="#257ABF" width="15" height="48.617"/>
				<rect x="-521.35" y="-115" fill="#257ABF" width="9" height="14"/>
				<rect x="-499.35" y="-141" fill="#07659C" width="4" height="65"/>
				<rect x="-514.35" y="-133" fill="#07659C" width="4" height="49"/>
				<rect x="-478.35" y="-115" fill="#07659C" width="4" height="14"/>
			</g>
		</g>
	</g>
	<g>
		<g>
			<path fill="#FFFFFF" stroke="#FFFFFF" stroke-width="2" stroke-miterlimit="10" d="M73.118,43.646v8.127
				c0,10.002-6.479,15.451-19.679,15.451h-6.24v23.488H34V28.195h19.439C66.639,28.195,73.118,33.645,73.118,43.646z M47.199,37.127
				v21.166h6.24c4.199,0,6.479-1.43,6.479-5.895v-9.377c0-4.465-2.28-5.895-6.479-5.895H47.199z"/>
			<path fill="#FFFFFF" stroke="#FFFFFF" stroke-width="2" stroke-miterlimit="10" d="M84.759,43.199
				c0-10.002,7.08-15.719,20.039-15.719c12.96,0,20.04,5.717,20.04,15.719v32.51c0,10.004-7.08,15.721-20.04,15.721
				c-12.959,0-20.039-5.717-20.039-15.721V43.199z M97.959,76.334c0,4.467,2.639,6.164,6.839,6.164s6.84-1.697,6.84-6.164v-33.76
				c0-4.465-2.64-6.162-6.84-6.162s-6.839,1.697-6.839,6.162V76.334z"/>
			<path fill="#FFFFFF" stroke="#FFFFFF" stroke-width="2" stroke-miterlimit="10" d="M168.637,57.4l-4.799,33.312h-18.119
				l-9.36-62.518h12.84l7.079,49.301l6.36-49.301h12.72l6.6,49.658l6.84-49.658h11.52l-9.36,62.518h-17.519L168.637,57.4z"/>
			<path fill="#FFFFFF" stroke="#FFFFFF" stroke-width="2" stroke-miterlimit="10" d="M226.116,54.543h18.12v8.932h-18.12v18.309
				h22.799v8.93h-35.998V28.195h35.998v8.932h-22.799V54.543z"/>
			<path fill="#FFFFFF" stroke="#FFFFFF" stroke-width="2" stroke-miterlimit="10" d="M290.676,90.713
				c-0.721-1.607-1.199-2.588-1.199-7.68v-9.824c0-5.805-2.641-7.949-8.642-7.949h-4.56v25.453h-13.199V28.195h19.92
				c13.68,0,19.559,4.734,19.559,14.379v4.912c0,6.432-2.76,10.629-8.639,12.684c6.6,2.055,8.76,6.787,8.76,13.307v9.646
				c0,3.037,0.119,5.27,1.439,7.59H290.676z M276.275,37.127V56.33h5.16c4.92,0,7.92-1.609,7.92-6.611v-6.16
				c0-4.467-2.039-6.432-6.719-6.432H276.275z"/>
			<path display="none" fill="#FFFFFF" stroke="#FFFFFF" stroke-width="2" stroke-miterlimit="10" d="M353.99,90.713h-13.199V28.195
				h13.199v26.793h15V28.195h13.439v62.518H368.99V63.92h-15V90.713z"/>
			<path fill="#FFFFFF" stroke="#FFFFFF" stroke-width="2" stroke-miterlimit="10" d="M437.115,43.199
				c0-10.002,7.08-15.719,20.039-15.719s20.039,5.717,20.039,15.719v32.51c0,10.004-7.08,15.721-20.039,15.721
				s-20.039-5.717-20.039-15.721V43.199z M450.314,76.334c0,4.467,2.641,6.164,6.84,6.164s6.84-1.697,6.84-6.164v-33.76
				c0-4.465-2.641-6.162-6.84-6.162s-6.84,1.697-6.84,6.162V76.334z"/>
			<path fill="#FFFFFF" stroke="#FFFFFF" stroke-width="2" stroke-miterlimit="10" d="M504.314,28.195v48.229
				c0,4.467,2.639,6.074,6.84,6.074c4.199,0,6.84-1.607,6.84-6.074V28.195h12.479v47.604c0,10.004-6.719,15.719-19.68,15.719
				c-12.959,0-19.678-5.715-19.678-15.719V28.195H504.314z"/>
			<path fill="#FFFFFF" stroke="#FFFFFF" stroke-width="2" stroke-miterlimit="10" d="M563.234,27.48
				c12.838,0,19.438,5.717,19.438,15.719v1.967h-12.479v-2.592c0-4.465-2.4-6.162-6.6-6.162s-6.6,1.697-6.6,6.162
				c0,12.861,25.799,15.273,25.799,33.135c0,10.004-6.721,15.721-19.68,15.721s-19.68-5.717-19.68-15.721v-3.84h12.48v4.465
				c0,4.467,2.639,6.074,6.84,6.074c4.199,0,6.84-1.607,6.84-6.074c0-12.859-25.799-15.271-25.799-33.135
				C543.795,33.197,550.395,27.48,563.234,27.48z"/>
			<path fill="#FFFFFF" stroke="#FFFFFF" stroke-width="2" stroke-miterlimit="10" d="M609.553,54.543h18.117v8.932h-18.117v18.309
				h22.797v8.93h-35.996V28.195h35.996v8.932h-22.797V54.543z"/>
		</g>
		<g>
			<rect x="352.115" y="53" fill="#257ABF" width="43" height="14"/>
			<g>
				<rect x="387.115" y="27" fill="#257ABF" width="18" height="65"/>
				<rect x="406" y="35.191" fill="#257ABF" width="15" height="48.617"/>
				<rect x="421" y="53" fill="#257ABF" width="9" height="14"/>
				<rect x="404" y="27" fill="#07659C" width="4" height="65"/>
				<rect x="419" y="35" fill="#07659C" width="4" height="49"/>
				<rect x="383" y="53" fill="#07659C" width="4" height="14"/>
			</g>
			<g>
				<rect x="335.885" y="27" fill="#257ABF" width="18" height="65"/>
				<rect x="320" y="35.191" fill="#257ABF" width="15" height="48.617"/>
				<rect x="311" y="53" fill="#257ABF" width="9" height="14"/>
				<rect x="333" y="27" fill="#07659C" width="4" height="65"/>
				<rect x="318" y="35" fill="#07659C" width="4" height="49"/>
				<rect x="354" y="53" fill="#07659C" width="4" height="14"/>
			</g>
		</g>
	</g>
</g>
</svg>
